<svg width="48" height="48" viewBox="0 0 48 48" fill="none" xmlns="http://www.w3.org/2000/svg">
<path d="M3 24C3 18.4305 5.21249 13.089 9.15076 9.15076C13.089 5.21249 18.4305 3 24 3C26.7578 3 29.4885 3.54318 32.0364 4.59853C34.5842 5.65388 36.8992 7.20073 38.8492 9.15076C40.7993 11.1008 42.3461 13.4158 43.4015 15.9636C44.4568 18.5115 45 21.2422 45 24C45 29.5695 42.7875 34.911 38.8492 38.8492C34.911 42.7875 29.5695 45 24 45C21.2422 45 18.5115 44.4568 15.9636 43.4015C13.4158 42.3461 11.1008 40.7993 9.15076 38.8492C5.21249 34.911 3 29.5695 3 24ZM36.6 24C36.6 22.8402 35.6598 21.9 34.5 21.9H22.2142C21.3233 21.9 20.8771 20.8229 21.5071 20.1929L25.659 16.041C26.4825 15.2175 26.4825 13.8825 25.659 13.059C24.8355 12.2355 23.5005 12.2355 22.677 13.059L13.8573 21.8787C12.6857 23.0503 12.6857 24.9497 13.8573 26.1213L22.677 34.941C23.5005 35.7645 24.8355 35.7645 25.659 34.941C26.4825 34.1175 26.4825 32.7825 25.659 31.959L21.5071 27.8071C20.8771 27.1771 21.3233 26.1 22.2142 26.1H34.5C35.6598 26.1 36.6 25.1598 36.6 24Z" fill="black"/>
</svg>
