<svg width="48" height="48" viewBox="0 0 48 48" fill="none" xmlns="http://www.w3.org/2000/svg">
<g id="clow">
<g id="clow_2">
<g id="Capa 1">
<path id="Vector" d="M18.9369 20.3051C16.4605 18.85 13.5794 17.7167 10.6361 17.8707C8.5131 17.9409 6.49748 18.8118 5.00193 20.3051C2.4771 22.9414 2.14507 27.4575 5.13682 29.8918C7.27428 31.6448 10.1657 31.9461 12.8324 31.6038C13.1048 31.5952 13.3637 31.4842 13.5565 31.2934C13.7492 31.1026 13.8613 30.8463 13.87 30.5766C13.87 30.0733 13.3892 29.481 12.8324 29.5495C12.1777 29.6349 11.5178 29.6761 10.8575 29.6727C10.5739 29.6727 10.2902 29.6727 10.0101 29.635L9.60888 29.5974C9.33911 29.57 9.83716 29.6385 9.5743 29.5974L9.34602 29.5495C8.85547 29.466 8.3738 29.3376 7.90722 29.166L7.75158 29.1078C7.61323 29.053 7.99023 29.2173 7.78962 29.1078L7.49564 28.9948C7.29454 28.8915 7.0994 28.7772 6.91112 28.6524C6.82811 28.601 6.7451 28.5428 6.66555 28.4881C6.43036 28.3237 6.81428 28.6216 6.59984 28.4367C6.4442 28.3032 6.28856 28.1662 6.14675 28.019C6.08104 27.9539 6.02224 27.8855 5.95999 27.817C5.89773 27.7485 5.72825 27.4746 5.91848 27.7725C5.8078 27.6116 5.69367 27.4575 5.59337 27.2897C5.49306 27.1219 5.43427 26.9816 5.35472 26.8275C5.27517 26.6734 5.39276 26.9199 5.39622 26.9302C5.37893 26.8789 5.35818 26.8343 5.34088 26.783C5.32359 26.7316 5.26825 26.5913 5.23712 26.492C5.1887 26.3276 5.14374 26.1496 5.10915 25.9955C5.09186 25.9099 5.08148 25.8243 5.06419 25.7421C5.0469 25.66 5.01577 25.7113 5.06419 25.862C5.04682 25.7949 5.03983 25.7257 5.04344 25.6565C5.01578 25.3033 5.01578 24.9484 5.04344 24.5952C5.04344 24.376 4.99156 24.8588 5.04344 24.5575C5.06073 24.4719 5.07457 24.3863 5.09186 24.3007C5.1299 24.1192 5.17833 23.9583 5.23021 23.7632C5.28209 23.568 5.36509 23.4208 5.42043 23.2359C5.46194 23.1092 5.29938 23.4824 5.39276 23.3078C5.41352 23.2701 5.43081 23.2256 5.4481 23.188C5.48961 23.0967 5.53457 23.0076 5.58299 22.9209C5.66946 22.76 5.76284 22.6025 5.86314 22.4518C5.91156 22.3731 5.9669 22.2978 6.01878 22.2224L6.11908 22.0889C6.23668 21.9211 5.95653 22.2738 6.09487 22.1197C6.35522 21.8192 6.63479 21.5356 6.93187 21.2706C6.99413 21.2192 7.27774 21.0207 6.99413 21.2124C7.07714 21.1542 7.15323 21.0926 7.23624 21.0378C7.4164 20.9134 7.60346 20.7991 7.79654 20.6954C7.97639 20.5961 8.16662 20.5139 8.34993 20.4215C8.53324 20.3291 8.17008 20.4797 8.30496 20.4215L8.45369 20.3633C8.57474 20.3154 8.69579 20.2743 8.82031 20.2332C9.03129 20.1647 9.24226 20.1065 9.46016 20.0586L9.80603 19.9901C9.88558 19.9901 10.3421 19.9182 10.0135 19.9524C10.5877 19.8891 11.1662 19.8742 11.7429 19.9079L12.234 19.9627C12.2824 19.9627 12.5557 20.0072 12.2859 19.9627L12.5349 20.0004C12.8808 20.0551 13.2267 20.127 13.5725 20.2126C13.9184 20.2982 14.2331 20.3941 14.5548 20.5002C14.7416 20.5619 14.9249 20.6269 15.1082 20.6954L15.3883 20.8015C15.4229 20.8015 15.6858 20.9248 15.5198 20.8529C16.3408 21.2033 17.1369 21.6083 17.9028 22.0649C19.0545 22.7497 20.099 20.9659 18.9404 20.2914L18.9369 20.3051Z" fill="black"/>
<path id="Vector_2" d="M9.71262 31.3504C9.51459 32.0218 9.48706 32.7313 9.63246 33.4157C9.77787 34.1002 10.0917 34.7386 10.5462 35.2741C11.48 36.4143 12.8946 37.1127 14.2677 37.5818C17.8855 38.8247 22.0774 38.6877 25.747 37.7393C28.0139 37.1825 30.1473 36.1876 32.0245 34.8119C32.2555 34.668 32.4226 34.4426 32.4919 34.1813C32.5613 33.92 32.5277 33.6424 32.3981 33.4047C32.1421 32.9733 31.4262 32.6994 30.98 33.0384C30.2318 33.6025 29.433 34.0976 28.5935 34.5175C27.7944 34.9216 26.9597 35.2528 26.0998 35.507C25.1938 35.7851 24.2692 36.0002 23.3329 36.1506L23.0112 36.202L22.7968 36.2328C22.821 36.2328 22.9282 36.2328 22.7968 36.2328C22.565 36.2636 22.3333 36.2876 22.105 36.3081C21.6485 36.3527 21.1885 36.38 20.7216 36.3937C19.8351 36.4223 18.9478 36.3926 18.0653 36.3047L17.7194 36.2671H17.5742C17.5742 36.2671 17.7298 36.2876 17.6088 36.2671L16.9931 36.1712C16.5988 36.0993 16.208 36.0171 15.8206 35.9178C15.4333 35.8185 15.0943 35.7158 14.7381 35.5754L14.2331 35.37C14.1224 35.3255 14.2884 35.394 14.2954 35.3974L14.1847 35.37L13.9357 35.2536C13.6413 35.1137 13.356 34.9559 13.0814 34.7811C12.9499 34.6989 12.8254 34.6099 12.7009 34.5209C12.6525 34.4832 12.8496 34.6476 12.7009 34.5209C12.6421 34.4661 12.5799 34.4182 12.5245 34.3668C12.4035 34.2573 12.2893 34.1443 12.1787 34.0244L12.0368 33.8601C12.1787 34.0176 12.0922 33.932 12.0161 33.8224C11.9386 33.7121 11.867 33.5978 11.8017 33.4801C11.7809 33.4424 11.6841 33.2301 11.7532 33.391C11.8224 33.552 11.729 33.3157 11.7152 33.2712C11.6749 33.1418 11.6414 33.0103 11.6149 32.8775C11.563 32.6549 11.6149 33.0932 11.6149 32.8775C11.6149 32.809 11.6149 32.7371 11.6149 32.6686C11.6149 32.6001 11.6149 32.5282 11.6149 32.4563C11.6149 32.3125 11.6495 32.2714 11.6149 32.4563C11.6529 32.2851 11.6771 32.1139 11.729 31.9496C12.0991 30.6759 10.0965 30.1315 9.72646 31.4018L9.71262 31.3504Z" fill="black"/>
<path id="Vector_3" d="M24.7268 28.7928C25.0576 30.0325 25.6912 31.1726 26.5717 32.113C27.4523 33.0533 28.5528 33.765 29.7764 34.1854C32.1076 35.0071 34.7638 34.8701 37.1261 34.247C39.3811 33.6513 41.6777 32.5351 43.2825 30.8232C44.8147 29.1866 45.5134 27.0159 44.5761 24.8999C44.003 23.7467 43.1453 22.7551 42.0824 22.017C40.5971 20.9542 38.9667 20.1057 37.2402 19.4971C36.7076 19.294 36.1703 19.1056 35.6285 18.9322C35.3664 18.8686 35.0896 18.9085 34.8567 19.0436C34.6239 19.1787 34.4534 19.3983 34.3814 19.6557C34.3094 19.9132 34.3416 20.1883 34.4711 20.4227C34.6006 20.6571 34.8173 20.8323 35.0751 20.9111C35.5801 21.0755 36.085 21.2535 36.5796 21.4384C36.8114 21.524 37.0431 21.6165 37.2714 21.7089C37.4408 21.7774 37.5688 21.8322 37.8213 21.9451C38.5881 22.2833 39.3311 22.6722 40.0452 23.1092C40.3427 23.2941 40.6297 23.4961 40.9133 23.6981C41.0655 23.8077 40.7715 23.5817 40.9721 23.7461L41.1416 23.883C41.2696 23.9858 41.3906 24.0953 41.5117 24.2049C41.7126 24.4004 41.903 24.6061 42.0824 24.8212L42.2173 24.9855C42.1273 24.8862 42.117 24.8451 42.2173 24.9615C42.3176 25.078 42.3729 25.1772 42.4421 25.3039C42.5666 25.4991 42.653 25.7148 42.7879 25.9134C42.6392 25.6566 42.7879 25.8826 42.8191 26.0161C42.8502 26.1496 42.8813 26.2181 42.909 26.3208C42.9367 26.4235 42.947 26.5194 42.9712 26.6221C43.0128 26.8241 42.9712 26.403 42.9712 26.5536C42.9712 26.6084 42.9712 26.6632 42.9712 26.7146C42.9712 26.9166 42.9712 27.1083 42.9712 27.3069C42.9712 27.5055 43.0197 27.0775 42.9712 27.2384C42.9712 27.2829 42.9712 27.3274 42.947 27.3719C42.9263 27.4781 42.9021 27.5808 42.8744 27.6835C42.8467 27.7862 42.8191 27.8615 42.7879 27.9471C42.7568 28.0327 42.743 28.0498 42.7291 28.0978C42.7153 28.1457 42.8398 27.865 42.7499 28.0498C42.6589 28.2453 42.5561 28.4351 42.4421 28.6182C42.3902 28.7038 42.3349 28.786 42.2795 28.8681L42.1758 29.0085C42.0582 29.1763 42.2173 28.964 42.2 28.9811C41.8748 29.3235 41.5774 29.6659 41.2177 30.0083L40.9375 30.2377L40.8857 30.2788L40.8096 30.337C40.5951 30.4922 40.3772 30.6394 40.1559 30.7787C39.6995 31.0618 39.226 31.3168 38.7378 31.5422L38.392 31.6962C38.2294 31.7716 38.596 31.6141 38.392 31.6962L38.1844 31.7784C37.9181 31.8811 37.6484 31.977 37.3786 32.066C36.838 32.2379 36.2884 32.3808 35.7322 32.494C35.4556 32.5454 35.1823 32.5864 34.9056 32.6309C35.2238 32.5796 34.8088 32.6309 34.705 32.6515L34.29 32.6892C33.7338 32.7268 33.1756 32.7268 32.6194 32.6892C32.4846 32.6892 32.3497 32.6686 32.2148 32.6549L31.9969 32.6309C31.8482 32.6309 32.2321 32.6686 31.9692 32.6309C31.7064 32.5933 31.447 32.5385 31.191 32.4769C30.9351 32.4152 30.6688 32.3399 30.4128 32.2543L30.0669 32.1311C29.849 32.0523 30.226 32.2064 30.0669 32.1311L29.8767 32.0455C29.6467 31.944 29.4226 31.8297 29.2057 31.7031C29.0974 31.6392 28.9901 31.5707 28.8841 31.4977L28.7423 31.3984C28.5244 31.2477 28.8322 31.4805 28.7181 31.3984C28.5244 31.234 28.3272 31.056 28.1474 30.8882C28.0575 30.7958 27.971 30.6999 27.8845 30.604C27.7981 30.5082 27.8084 30.5116 27.7669 30.4671C27.6182 30.2959 27.8741 30.6212 27.7427 30.4328C27.5844 30.2123 27.4378 29.9837 27.3035 29.7481C27.2343 29.6248 27.1686 29.505 27.1063 29.3783L27.0233 29.2003C26.9126 28.9674 27.051 29.2893 26.9991 29.1421C26.8988 28.8579 26.795 28.5771 26.712 28.2861C26.3662 27.0159 24.3567 27.5534 24.7129 28.8339L24.7268 28.7928Z" fill="black"/>
<path id="Vector_4" d="M34.7361 21.9109C35.6976 20.8427 36.583 19.5861 36.8839 18.1447C37.1484 16.9361 36.9655 15.6737 36.3686 14.5873C35.1097 12.2968 32.3981 11.0197 30.0047 10.239C26.9565 9.28203 23.7597 8.87384 20.5659 9.03385C17.5673 9.16738 14.3818 9.71861 11.7913 11.3107C9.41172 12.7727 7.84148 15.1694 8.01442 18.0112C8.04623 18.4252 8.10399 18.8368 8.18735 19.2437C8.26023 19.5037 8.4335 19.7248 8.66971 19.8593C8.90592 19.9939 9.18612 20.031 9.44977 19.9627C9.71193 19.8853 9.9338 19.7107 10.0691 19.4754C10.2044 19.24 10.2428 18.962 10.1761 18.6993C10.1588 18.6206 10.1484 18.5418 10.1346 18.4631C10.0827 18.1789 10.1346 18.6548 10.1346 18.4117C10.1346 18.2508 10.1035 18.0899 10.0965 17.929C10.0741 17.6212 10.0741 17.3123 10.0965 17.0045C10.0958 16.9353 10.104 16.8663 10.1207 16.7991C10.0066 17.097 10.1207 16.9018 10.1207 16.7991C10.1207 16.6964 10.1761 16.5184 10.2107 16.3814C10.2798 16.1041 10.3871 15.8507 10.477 15.5837C10.3559 15.926 10.5185 15.5118 10.5704 15.409C10.6223 15.3063 10.7018 15.1694 10.7744 15.0495C10.8471 14.9297 10.9232 14.8201 11.0027 14.7071L11.0546 14.6352C10.9405 14.7927 11.0961 14.5839 11.1272 14.5462C11.3134 14.3243 11.5145 14.1149 11.729 13.9197C11.8293 13.8272 11.9331 13.7382 12.0369 13.6492C12.1406 13.5602 12.1475 13.567 12.196 13.5225C12.2444 13.478 12.0057 13.656 12.1095 13.5876L12.2375 13.4951C12.7362 13.1373 13.2663 12.8244 13.8215 12.5604L14.2366 12.3755C14.4475 12.2796 14.0083 12.4645 14.2781 12.355L14.5236 12.2591C14.8384 12.1393 15.1566 12.0331 15.4748 11.9167C16.1483 11.7126 16.8331 11.5468 17.5258 11.4203L18.0619 11.3278L18.3178 11.2902L18.5011 11.2628H18.6533L18.9473 11.2285L19.5041 11.1737C21.032 11.0402 22.5686 11.0356 24.0972 11.1601C24.4742 11.1909 24.8512 11.232 25.2282 11.2799C25.3078 11.2799 25.5948 11.3347 25.2836 11.2799L25.5464 11.3175L26.124 11.4031C26.8434 11.5264 27.5594 11.6771 28.2649 11.8619C28.936 12.0354 29.5975 12.2434 30.2468 12.4851L30.6826 12.6563C30.935 12.759 30.5442 12.5946 30.6826 12.6563L30.9454 12.7727C31.2325 12.8994 31.5126 13.0397 31.7893 13.187C32.066 13.3342 32.315 13.478 32.5675 13.6389C32.6817 13.7108 32.7958 13.7861 32.9134 13.8649L33.076 13.9779L33.1555 14.0361C33.3146 14.1456 32.9549 13.8752 33.1036 13.995C33.5052 14.3309 33.8809 14.696 34.2277 15.0872C34.3314 15.2002 34.0686 14.8612 34.2 15.0495C34.2346 15.0975 34.2692 15.142 34.3003 15.1899C34.373 15.296 34.4421 15.4022 34.5044 15.5118C34.5666 15.6213 34.6116 15.7069 34.6635 15.8062C34.6635 15.8062 34.7361 15.9534 34.7327 15.9534C34.7292 15.9534 34.6289 15.6658 34.7327 15.9363C34.8075 16.1549 34.8687 16.3779 34.916 16.604C34.9644 16.8265 34.9506 16.5629 34.916 16.5321C34.9367 16.5321 34.916 16.6724 34.916 16.6964C34.916 16.8231 34.916 16.9463 34.916 17.0696C34.916 17.1929 34.916 17.299 34.8952 17.412C34.8952 17.6517 34.9402 17.1963 34.8952 17.3538C34.8952 17.4257 34.871 17.501 34.8572 17.5729C34.8013 17.8325 34.7261 18.0877 34.6324 18.3364C34.6081 18.398 34.5805 18.4563 34.5597 18.5179C34.6669 18.2063 34.6012 18.422 34.5597 18.5179C34.4905 18.6617 34.4214 18.8055 34.3418 18.9424C34.1813 19.2261 34.0047 19.5004 33.8126 19.7642L33.6639 19.9593C33.8438 19.7196 33.6639 19.9422 33.6293 20.0004C33.5014 20.1545 33.3699 20.3051 33.2385 20.4558C33.0552 20.6505 32.9554 20.908 32.9602 21.1741C32.9649 21.4402 33.0738 21.6941 33.2639 21.8823C33.454 22.0705 33.7105 22.1783 33.9793 22.183C34.2481 22.1877 34.5083 22.0889 34.705 21.9075L34.7361 21.9109Z" fill="black"/>
</g>
</g>
</g>
</svg>
