<svg width="48" height="48" viewBox="0 0 48 48" fill="none" xmlns="http://www.w3.org/2000/svg">
<path fill-rule="evenodd" clip-rule="evenodd" d="M25.7789 12.2047C22.8195 12.2047 20.2596 14.1326 19.0522 16.9345C18.7276 17.6879 17.9399 18.0351 17.2434 17.7318C16.3067 17.3238 15.2864 17.0992 14.2159 17.0992C9.60294 17.0992 5.86343 21.2845 5.86343 26.4472C5.86343 31.61 9.60294 35.7953 14.2159 35.7953H36.4525C39.5917 35.7953 42.1366 32.9471 42.1366 29.4337C42.1366 25.9203 39.5917 23.0721 36.4525 23.0721C35.9418 23.0721 35.4488 23.1472 34.981 23.287C34.5225 23.424 34.0331 23.2979 33.6743 22.9501C33.3155 22.6024 33.1341 22.0782 33.1898 21.5507C33.2242 21.2255 33.2419 20.8941 33.2419 20.5573C33.2419 15.9443 29.9006 12.2047 25.7789 12.2047ZM17.0896 14.3107C18.9255 11.1182 22.1301 9 25.7789 9C31.2777 9 35.7726 13.8102 36.0877 19.876C36.2087 19.8703 36.3304 19.8674 36.4525 19.8674C41.1732 19.8674 45 24.1504 45 29.4337C45 34.717 41.1732 39 36.4525 39H14.2159C8.02151 39 3 33.3799 3 26.4472C3 19.5145 8.02151 13.8945 14.2159 13.8945C15.2079 13.8945 16.1713 14.039 17.0896 14.3107Z" fill="black"/>
</svg>
