<svg width="48" height="48" viewBox="0 0 48 48" fill="none" xmlns="http://www.w3.org/2000/svg">
<g id="communication">
<g id="Communication">
<g id="Group 1">
<path id="Vector" d="M33.0306 21.4925C33.0306 27.2868 26.7194 31.9849 18.9362 31.9849C17.0987 31.9897 15.2709 31.7173 13.5146 31.1769C12.4152 30.8386 2.6494 38.8755 5.15506 35.117C5.86604 34.049 8.34978 28.4958 7.52291 27.6533C5.83786 25.9212 4.84185 23.7946 4.84185 21.4925C4.84185 15.6981 11.1499 11 18.9362 11C26.7226 11 33.0306 15.6981 33.0306 21.4925Z" stroke="black" stroke-width="2" stroke-miterlimit="10"/>
<path id="Vector_2" d="M12.8067 18.6987L22.5694 18.8803L23.9475 18.9054C25.1565 18.9304 25.1565 17.0512 23.9475 17.0261L14.1848 16.8476L12.8067 16.8194C11.5977 16.7975 11.5977 18.6767 12.8067 18.6987Z" fill="black"/>
<path id="Vector_3" d="M12.8067 22.4572L22.5694 22.6389L23.9475 22.6639C25.1565 22.689 25.1565 20.8097 23.9475 20.7847L14.1848 20.6061L12.8067 20.5779C11.5977 20.556 11.5977 22.4353 12.8067 22.4572Z" fill="black"/>
<path id="Vector_4" d="M12.8067 26.2156L22.5694 26.3973L23.9475 26.4223C25.1565 26.4474 25.1565 24.5681 23.9475 24.5431L14.1848 24.3646L12.8067 24.3364C11.5977 24.3144 11.5977 26.1937 12.8067 26.2156Z" fill="black"/>
</g>
<g id="Group 2">
<path id="Vector_5" d="M33.3501 25.1632L37.9636 25.2478C38.2128 25.2478 38.4518 25.1488 38.628 24.9726C38.8042 24.7964 38.9032 24.5574 38.9032 24.3082C38.8984 24.0605 38.7979 23.8243 38.6227 23.6491C38.4475 23.4739 38.2113 23.3734 37.9636 23.3686L33.3501 23.284C33.1009 23.284 32.8619 23.383 32.6856 23.5592C32.5094 23.7354 32.4104 23.9744 32.4104 24.2236C32.416 24.4711 32.5168 24.7068 32.6918 24.8819C32.8668 25.0569 33.1026 25.1577 33.3501 25.1632Z" fill="black"/>
<path id="Vector_6" d="M31.6023 27.9132L37.9636 28.0323C38.2128 28.0323 38.4518 27.9333 38.628 27.7571C38.8042 27.5808 38.9032 27.3418 38.9032 27.0926C38.9032 26.8434 38.8042 26.6044 38.628 26.4282C38.4518 26.252 38.2128 26.153 37.9636 26.153L31.6023 26.034C31.3531 26.034 31.1141 26.133 30.9379 26.3092C30.7617 26.4854 30.6627 26.7244 30.6627 26.9736C30.6627 27.2228 30.7617 27.4618 30.9379 27.638C31.1141 27.8142 31.3531 27.9132 31.6023 27.9132Z" fill="black"/>
<path id="Vector_7" d="M29.72 30.657L36.9238 30.7886L37.9605 30.8074C39.1695 30.8324 39.1695 28.9532 37.9605 28.9281L30.7567 28.7966L29.72 28.7778C28.511 28.7527 28.511 30.632 29.72 30.657Z" fill="black"/>
<path id="Vector_8" d="M43.5575 37.2344C43.0125 36.42 41.1176 32.1823 41.7472 31.5371C43.0237 30.3031 43.7601 28.6141 43.7956 26.839C43.7956 22.4165 38.9784 18.8303 33.04 18.8303H32.636L32.7174 19.1435V19.4567C32.7388 19.8908 32.8452 20.3164 33.0306 20.7095C33.6883 24.9159 29.8233 29.2006 25.8268 30.7322C25.4416 30.8794 23.6344 31.3586 23.9476 31.3586C25.9176 33.1909 29.6417 34.8446 33.0306 34.8446C34.4355 34.8459 35.8326 34.6347 37.1743 34.2182C38.0169 33.9676 45.4618 40.1034 43.5575 37.2344Z" stroke="black" stroke-width="2" stroke-miterlimit="10"/>
</g>
</g>
</g>
</svg>
