<svg width="48" height="48" viewBox="0 0 48 48" fill="none" xmlns="http://www.w3.org/2000/svg"><path d="M31.3163 16.1965C32.3074 16.1965 33.1109 17.0039 33.1109 18C33.1109 18.9961 32.3074 19.8035 31.3163 19.8035H18.1559C17.1648 19.8035 16.3613 18.9961 16.3613 18C16.3613 17.0039 17.1648 16.1965 18.1559 16.1965H31.3163Z" fill="black"/><path fill-rule="evenodd" clip-rule="evenodd" d="M6.33689 30.7844C0.958203 17.5165 10.6708 3 24.9267 3H25.6958C36.3572 3 45 11.6858 45 22.4002C45 34.3294 35.3773 44 23.507 44H4.7947C4.03317 44 3.35457 43.517 3.10182 42.7951C2.84908 42.0731 3.07723 41.2695 3.67099 40.7903L8.38837 36.983C8.59463 36.8165 8.6676 36.5336 8.56779 36.2874L6.33689 30.7844ZM24.9267 6.60704C13.2198 6.60704 5.24386 18.5279 9.66082 29.4235L11.8917 34.9265C12.5904 36.65 12.0797 38.63 10.6358 39.7954L9.89535 40.393H23.507C33.395 40.393 41.4108 32.3373 41.4108 22.4002C41.4108 13.6779 34.3749 6.60704 25.6958 6.60704H24.9267Z" fill="black"/><path d="M31.455 22.8035C32.4461 22.8035 33.2496 23.611 33.2496 24.607C33.2496 25.6031 32.4461 26.4106 31.455 26.4106H18.2946C17.3035 26.4106 16.5 25.6031 16.5 24.607C16.5 23.611 17.3035 22.8035 18.2946 22.8035H31.455Z" fill="black"/><path d="M31.455 29.4235C32.4461 29.4235 33.2496 30.2309 33.2496 31.227C33.2496 32.223 32.4461 33.0305 31.455 33.0305H18.2946C17.3035 33.0305 16.5 32.223 16.5 31.227C16.5 30.2309 17.3035 29.4235 18.2946 29.4235H31.455Z" fill="black"/></svg>
