<svg width="48" height="48" viewBox="0 0 48 48" fill="none" xmlns="http://www.w3.org/2000/svg">
<g id="Cross-close">
<path id="Subtract" fill-rule="evenodd" clip-rule="evenodd" d="M24 45C35.598 45 45 35.598 45 24C45 12.402 35.598 3 24 3C12.402 3 3 12.402 3 24C3 35.598 12.402 45 24 45ZM31.0648 38.594C31.2534 38.8493 31.5519 39 31.8693 39H36.9786C37.8065 39 38.2758 38.0513 37.7734 37.3932L28.1457 24.7812C27.8721 24.4228 27.8722 23.9256 28.146 23.5673L37.2846 11.6071C37.7875 10.9491 37.3182 10 36.49 10H31.7036C31.388 10 31.091 10.149 30.9022 10.4018L24.9097 18.4301C24.5098 18.9659 23.7069 18.9659 23.3069 18.4301L17.3144 10.4018C17.1256 10.149 16.8286 10 16.513 10H11.4945C10.6692 10 10.1992 10.9434 10.6963 11.6023L19.8059 23.6762C20.0764 24.0347 20.0747 24.5296 19.8017 24.8862L10.2305 37.3922C9.72691 38.0502 10.1961 39 11.0246 39H15.9704C16.2866 39 16.5841 38.8505 16.7728 38.5968L23.1405 30.0359C23.5413 29.4971 24.3485 29.4985 24.7474 30.0386L31.0648 38.594Z" fill="black"/>
</g>
</svg>
