<svg width="48" height="48" viewBox="0 0 48 48" fill="none" xmlns="http://www.w3.org/2000/svg">
<path d="M24 3C35.613 3 45 12.387 45 24C45 35.613 35.613 45 24 45C12.387 45 3 35.613 3 24C3 12.387 12.387 3 24 3ZM33.0195 14.9805C32.2018 14.1628 30.8762 14.1628 30.0585 14.9805L24.7071 20.3319C24.3166 20.7224 23.6834 20.7224 23.2929 20.3319L17.9415 14.9805C17.1238 14.1628 15.7982 14.1628 14.9805 14.9805V14.9805C14.1628 15.7982 14.1628 17.1238 14.9805 17.9415L20.3319 23.2929C20.7224 23.6834 20.7224 24.3166 20.3319 24.7071L14.9805 30.0585C14.1628 30.8762 14.1628 32.2018 14.9805 33.0195V33.0195C15.7982 33.8372 17.1238 33.8372 17.9415 33.0195L23.2929 27.6681C23.6834 27.2776 24.3166 27.2776 24.7071 27.6681L30.0585 33.0195C30.8762 33.8372 32.2018 33.8372 33.0195 33.0195V33.0195C33.8372 32.2018 33.8372 30.8762 33.0195 30.0585L27.6681 24.7071C27.2776 24.3166 27.2776 23.6834 27.6681 23.2929L33.0195 17.9415C33.8372 17.1238 33.8372 15.7982 33.0195 14.9805V14.9805Z" fill="black"/>
</svg>
