<svg width="48" height="48" viewBox="0 0 48 48" fill="none" xmlns="http://www.w3.org/2000/svg">
<g id="digital">
<g id="Digital">
<path id="Union" fill-rule="evenodd" clip-rule="evenodd" d="M3 8.1386V30.4999C3 30.7958 3.11872 31.0795 3.33004 31.2887C3.54135 31.4979 3.82796 31.6154 4.12681 31.6154H17.4533V35.3742L11.1394 38.7841C10.1478 39.3195 10.6135 40.8626 11.7103 40.8626H36.5452C37.6945 40.8626 38.0476 39.3753 37.1123 38.7841L30.8811 34.8093L30.5543 34.601V31.6154H38.9941C39.5272 31.6154 40.0615 31.6212 40.5961 31.6269C41.6662 31.6385 42.7373 31.6501 43.8018 31.6154H43.8732C44.172 31.6154 44.4586 31.4979 44.67 31.2887C44.8813 31.0795 45 30.7958 45 30.4999V8.1386C45 7.84276 44.8813 7.55904 44.67 7.34985C44.4586 7.14066 44.172 7.02314 43.8732 7.02314H9.00966C8.47658 7.02314 7.94225 7.01736 7.40764 7.01158C6.33759 7.00001 5.26642 6.98842 4.20193 7.02314C4.17694 7.0252 4.15181 7.0252 4.12681 7.02314C3.77536 7.02314 3.50889 7.15423 3.32755 7.35285C3.13 7.53198 3 7.79389 3 8.1386ZM19.7106 36.0289V31.7864H28.3007V34.9357C28.2783 35.1814 28.3239 35.4284 28.4324 35.6504C28.5409 35.8724 28.7083 36.0611 28.9167 36.1962C30.0206 36.9313 31.1522 37.6421 32.2826 38.3521L32.7214 38.6279H16.1186L19.151 36.9919C19.3211 36.8938 19.4623 36.7532 19.5605 36.5843C19.6587 36.4153 19.7105 36.2238 19.7106 36.0289ZM5.25362 25.5958V9.25406H42.2431C42.4096 9.25406 42.5777 9.25796 42.7464 9.26196V25.6142H9.31764C8.78595 25.6142 8.25259 25.608 7.71882 25.6018C6.89656 25.5923 6.0733 25.5827 5.25362 25.5958ZM5.25362 27.8451V29.3773C5.42229 29.3809 5.5904 29.3845 5.75693 29.3845H42.7464V27.8676C42.0339 27.8741 41.3201 27.8658 40.6071 27.8575C40.0737 27.8513 39.5408 27.8451 39.0091 27.8451H5.25362Z" fill="black"/>
</g>
</g>
</svg>
