<svg width="48" height="48" viewBox="0 0 48 48" fill="none" xmlns="http://www.w3.org/2000/svg">
<g id="instagram">
<path id="Vector" d="M16.65 6.5H31.35C36.95 6.5 41.5 11.05 41.5 16.65V31.35C41.5 34.0419 40.4306 36.6236 38.5271 38.5271C36.6236 40.4306 34.0419 41.5 31.35 41.5H16.65C11.05 41.5 6.5 36.95 6.5 31.35V16.65C6.5 13.9581 7.56937 11.3764 9.47287 9.47287C11.3764 7.56937 13.9581 6.5 16.65 6.5ZM16.3 10C14.6291 10 13.0267 10.6637 11.8452 11.8452C10.6637 13.0267 10 14.6291 10 16.3V31.7C10 35.1825 12.8175 38 16.3 38H31.7C33.3709 38 34.9733 37.3363 36.1548 36.1548C37.3363 34.9733 38 33.3709 38 31.7V16.3C38 12.8175 35.1825 10 31.7 10H16.3ZM33.1875 12.625C33.7677 12.625 34.3241 12.8555 34.7343 13.2657C35.1445 13.6759 35.375 14.2323 35.375 14.8125C35.375 15.3927 35.1445 15.9491 34.7343 16.3593C34.3241 16.7695 33.7677 17 33.1875 17C32.6073 17 32.0509 16.7695 31.6407 16.3593C31.2305 15.9491 31 15.3927 31 14.8125C31 14.2323 31.2305 13.6759 31.6407 13.2657C32.0509 12.8555 32.6073 12.625 33.1875 12.625ZM24 15.25C26.3206 15.25 28.5462 16.1719 30.1872 17.8128C31.8281 19.4538 32.75 21.6794 32.75 24C32.75 26.3206 31.8281 28.5462 30.1872 30.1872C28.5462 31.8281 26.3206 32.75 24 32.75C21.6794 32.75 19.4538 31.8281 17.8128 30.1872C16.1719 28.5462 15.25 26.3206 15.25 24C15.25 21.6794 16.1719 19.4538 17.8128 17.8128C19.4538 16.1719 21.6794 15.25 24 15.25ZM24 18.75C22.6076 18.75 21.2723 19.3031 20.2877 20.2877C19.3031 21.2723 18.75 22.6076 18.75 24C18.75 25.3924 19.3031 26.7277 20.2877 27.7123C21.2723 28.6969 22.6076 29.25 24 29.25C25.3924 29.25 26.7277 28.6969 27.7123 27.7123C28.6969 26.7277 29.25 25.3924 29.25 24C29.25 22.6076 28.6969 21.2723 27.7123 20.2877C26.7277 19.3031 25.3924 18.75 24 18.75Z" fill="black"/>
</g>
</svg>
