<svg width="48" height="48" viewBox="0 0 48 48" fill="none" xmlns="http://www.w3.org/2000/svg">
<g id="job">
<g id="job_2">
<path id="Union" fill-rule="evenodd" clip-rule="evenodd" d="M27.3222 11L20.2425 11L20.235 11C19.8181 11.0031 19.4068 11.0962 19.0291 11.2727C18.6514 11.4493 18.3163 11.7052 18.0465 12.0231C17.7768 12.3409 17.5787 12.7132 17.466 13.1146C17.4291 13.2459 17.4016 13.3794 17.3836 13.5139C13.8376 15.2802 11.3437 18.5157 9.8152 22.151C8.35029 25.635 7.73738 29.5615 7.94829 33.1158C7.64243 33.1121 7.33638 33.107 7.03024 33.102C6.0125 33.0852 4.99387 33.0684 3.97886 33.0974H3.9075C2.6975 33.0974 2.6975 34.959 3.9075 34.959L7.9067 34.9807L17.5246 35.0272L29.1531 35.0862L39.2085 35.1389C39.8222 35.1389 40.4377 35.149 41.0536 35.1592C42.0723 35.1759 43.0923 35.1927 44.1074 35.1637H44.1757C45.3764 35.1637 45.3764 33.3022 44.1757 33.3022L40.1765 33.2805L39.8426 33.2789C40.0463 29.7355 39.4324 25.8262 37.9733 22.3558C36.4168 18.654 33.8593 15.3668 30.2093 13.6233C30.1919 13.4414 30.1574 13.2611 30.1058 13.0848C29.989 12.6855 29.7875 12.316 29.5152 12.0015C29.2429 11.6869 28.9061 11.4347 28.5276 11.2619C28.1494 11.0891 27.7384 10.9998 27.3225 11H27.3222ZM37.8396 33.2692C38.0445 29.9981 37.483 26.3497 36.1296 23.131C34.8029 19.9756 32.7492 17.3065 29.9909 15.7616L27.7746 31.6731C27.7321 32.0301 27.6205 32.3754 27.4458 32.6897L27.4404 32.6994L27.4347 32.709C27.3303 32.8875 27.2127 33.057 27.0833 33.2163L30.5585 33.2339L37.8396 33.2692ZM20.7755 33.1843C20.6572 33.0356 20.5491 32.8782 20.4522 32.7131C20.2709 32.4089 20.1489 32.0729 20.0928 31.7231L20.0921 31.719C19.2571 26.3689 18.4257 21.0198 17.5977 15.6715C14.9399 17.2317 12.9533 19.8475 11.6589 22.9262C10.2967 26.1658 9.7367 29.8407 9.95293 33.1279L18.9332 33.175L20.7755 33.1843ZM18.3465 14.1989L18.3809 14.1935L18.3464 14.1988L18.3465 14.1989ZM27.3231 13C27.4521 12.9999 27.5796 13.0276 27.6969 13.0812C27.8143 13.1348 27.9187 13.213 28.0031 13.3105C28.0876 13.408 28.15 13.5226 28.1862 13.6464C28.2225 13.7702 28.2316 13.9003 28.2131 14.028L28.2122 14.0338L25.7922 31.4082L25.7905 31.4205L25.7891 31.4329C25.7781 31.5298 25.7486 31.6236 25.7024 31.7094C25.5223 32.0129 25.2667 32.2648 24.9604 32.4404C24.6505 32.6181 24.2995 32.7116 23.9423 32.7116C23.5851 32.7116 23.2341 32.6181 22.9242 32.4404C22.6143 32.2627 22.3563 32.007 22.1759 31.6987L22.1759 31.6987L22.1709 31.6904C22.119 31.6036 22.084 31.5078 22.0678 31.4081C21.1641 25.6179 20.2646 19.8287 19.3692 14.0406L19.3688 14.0383C19.3487 13.9106 19.3565 13.78 19.3914 13.6556C19.4264 13.5312 19.4878 13.4157 19.5714 13.3172C19.6551 13.2186 19.759 13.1393 19.8761 13.0845C19.9922 13.0302 20.1187 13.0014 20.2469 13H27.3225L27.3231 13Z" fill="black"/>
</g>
</g>
</svg>
