<svg width="48" height="48" viewBox="0 0 48 48" fill="none" xmlns="http://www.w3.org/2000/svg">
<g id="linkedin">
<path id="Vector" d="M36.25 8.25C37.1783 8.25 38.0685 8.61875 38.7249 9.27513C39.3813 9.9315 39.75 10.8217 39.75 11.75V36.25C39.75 37.1783 39.3813 38.0685 38.7249 38.7249C38.0685 39.3813 37.1783 39.75 36.25 39.75H11.75C10.8217 39.75 9.9315 39.3813 9.27513 38.7249C8.61875 38.0685 8.25 37.1783 8.25 36.25V11.75C8.25 10.8217 8.61875 9.9315 9.27513 9.27513C9.9315 8.61875 10.8217 8.25 11.75 8.25H36.25ZM35.375 35.375V26.1C35.375 24.5869 34.7739 23.1359 33.704 22.066C32.6341 20.9961 31.1831 20.395 29.67 20.395C28.1825 20.395 26.45 21.305 25.61 22.67V20.7275H20.7275V35.375H25.61V26.7475C25.61 25.4 26.695 24.2975 28.0425 24.2975C28.6923 24.2975 29.3154 24.5556 29.7749 25.0151C30.2344 25.4746 30.4925 26.0977 30.4925 26.7475V35.375H35.375ZM15.04 17.98C15.8197 17.98 16.5675 17.6703 17.1189 17.1189C17.6703 16.5675 17.98 15.8197 17.98 15.04C17.98 13.4125 16.6675 12.0825 15.04 12.0825C14.2556 12.0825 13.5034 12.3941 12.9487 12.9487C12.3941 13.5034 12.0825 14.2556 12.0825 15.04C12.0825 16.6675 13.4125 17.98 15.04 17.98ZM17.4725 35.375V20.7275H12.625V35.375H17.4725Z" fill="black"/>
</g>
</svg>
