<svg width="48" height="48" viewBox="0 0 48 48" fill="none" xmlns="http://www.w3.org/2000/svg">
<g id="managament">
<g id="Managament">
<path id="Union" fill-rule="evenodd" clip-rule="evenodd" d="M16.5806 10.1569C16.5938 10.1493 16.6123 10.1395 16.6371 10.1269H16.6485C16.7594 10.0521 16.8826 9.99763 17.0122 9.96584C17.0579 9.92657 17.1068 9.89069 17.1586 9.85861C17.1759 9.84653 17.1898 9.83717 17.2008 9.83006C17.2082 9.82168 17.218 9.81117 17.2304 9.79815C17.256 9.77409 17.2821 9.74704 17.3086 9.71961C17.3488 9.67812 17.3897 9.63578 17.4307 9.60166C17.4399 9.59357 17.4479 9.58656 17.455 9.58052C17.4563 9.57824 17.4582 9.57525 17.4609 9.57143L17.4609 9.57139C17.5063 9.50716 17.5516 9.44294 17.5932 9.37493C17.66 9.26494 17.7217 9.15193 17.7781 9.03626C17.7806 9.03027 17.7842 9.02151 17.7887 9.01096C17.8069 8.96779 17.8377 8.89455 17.8501 8.85724L17.8501 8.85717C17.8766 8.77784 17.903 8.69851 17.9257 8.61918C17.9786 8.46047 18.0202 8.26398 18.0579 8.08259C18.0635 8.05342 18.0757 7.97368 18.0876 7.89595C18.1046 7.78503 18.1209 7.67821 18.1164 7.7283C18.1512 7.39798 18.1751 7.06748 18.1751 6.73358C18.1707 6.12746 18.1341 5.52201 18.0655 4.91977C18.1033 5.19184 18.0882 5.01802 18.0655 4.87065C18.0593 4.82918 18.0519 4.78771 18.0447 4.74687C18.0387 4.71328 18.0328 4.6801 18.0277 4.6477C18.0235 4.62102 18.0172 4.59434 18.0109 4.56785C18.0004 4.52306 17.9899 4.47883 17.9899 4.43609C17.9433 4.26748 17.9363 4.09037 17.9695 3.91861C18.0027 3.74685 18.0752 3.58511 18.1813 3.44604C18.2875 3.30697 18.4243 3.19435 18.5812 3.117C18.7381 3.03964 18.9108 2.99965 19.0858 3.00016H29.005C29.1826 2.99719 29.3584 3.03599 29.5182 3.11343C29.6781 3.19086 29.8175 3.30477 29.9252 3.44596C30.0329 3.58716 30.106 3.75169 30.1385 3.9263C30.1709 4.10091 30.162 4.28071 30.1122 4.4512C30.0625 4.62655 30.0222 4.8044 29.9913 4.98401C29.9773 5.05122 29.9716 5.08938 29.9603 5.16463C29.9593 5.1717 29.9582 5.17911 29.957 5.18689C29.9564 5.20157 29.9533 5.2389 29.9459 5.31276C29.9374 5.41988 29.932 5.52394 29.9265 5.62873C29.9198 5.75682 29.9131 5.88599 29.9006 6.02317C29.8855 6.1893 29.8905 6.3571 29.8955 6.52546C29.8981 6.60986 29.9006 6.69439 29.9006 6.77892L29.9195 6.96786C29.9264 7.02844 29.9257 7.0223 29.923 6.9966C29.9184 6.95176 29.9075 6.84738 29.9195 6.93385C29.9384 7.06989 29.9573 7.19081 29.9837 7.31173C30.0443 7.58975 30.1265 7.86264 30.2293 8.12794C30.2294 8.12815 30.2295 8.12836 30.2296 8.12857C30.236 8.14008 30.2434 8.15365 30.252 8.16951C30.2671 8.19785 30.2813 8.22713 30.2955 8.25642C30.3096 8.2857 30.3238 8.31499 30.3389 8.34333C30.4032 8.46047 30.4712 8.57761 30.543 8.6872C30.549 8.69582 30.5629 8.71489 30.5792 8.73712C30.6122 8.78233 30.6547 8.8406 30.6598 8.85056L30.7432 8.94793C30.8383 9.05429 30.9392 9.15522 31.0456 9.25023C31.0847 9.2894 31.126 9.32442 31.1677 9.3599C31.1824 9.37235 31.1971 9.38485 31.2118 9.3976C31.0833 9.2918 31.2534 9.42406 31.2534 9.42406C31.3828 9.51894 31.5179 9.606 31.6577 9.68479C31.6727 9.69478 31.7223 9.71839 31.7705 9.7413C31.8246 9.76699 31.8767 9.79181 31.8761 9.79553L31.8958 9.80193L32.1603 9.89262C32.3063 9.94093 32.4553 9.98005 32.6062 10.0098H32.814H33.071C33.094 10.0098 33.1131 10.0099 33.1287 10.0103C33.1296 10.0101 33.1305 10.0099 33.1314 10.0098C33.2715 9.98716 33.4103 9.95689 33.5471 9.91907C33.7044 9.87794 33.8596 9.82875 34.0119 9.7717L34.2159 9.69613C34.1894 9.71822 34.1345 9.74678 34.135 9.7478C34.1353 9.74852 34.1636 9.73535 34.2499 9.69613C34.8005 9.43573 35.3255 9.12452 35.8181 8.76655C35.8375 8.75291 35.8841 8.71841 35.9348 8.68095C36.0402 8.60306 36.1629 8.51237 36.093 8.56979L36.3358 8.37356C36.5021 8.23752 36.6721 8.09015 36.8233 7.95412C36.9744 7.81808 37.1218 7.68205 37.2616 7.53467C37.3862 7.4151 37.5361 7.32507 37.7002 7.27123C37.8643 7.21738 38.0384 7.2011 38.2097 7.2236C38.3809 7.24609 38.5449 7.30678 38.6895 7.40117C38.8341 7.49557 38.9557 7.62126 39.0452 7.76896L39.7405 8.80056L44.5886 15.9802C44.7398 16.2398 44.7817 16.5488 44.7052 16.8393C44.6286 17.1298 44.4399 17.378 44.1805 17.5295C44.003 17.6104 43.8302 17.7012 43.6628 17.8016C43.6057 17.8376 43.5461 17.8741 43.4853 17.9112C43.3614 17.9869 43.2329 18.0655 43.1111 18.1492C43.0091 18.2172 42.8806 18.3117 42.8126 18.3646C42.7446 18.4175 42.9827 18.221 42.7862 18.3873L42.6275 18.5233C42.421 18.699 42.2242 18.8857 42.038 19.0826C42.0109 19.1141 41.9843 19.145 41.9581 19.1755C41.8744 19.2727 41.7945 19.3655 41.7168 19.4605C41.6906 19.4938 41.6658 19.5287 41.6407 19.5642C41.626 19.5849 41.6112 19.6058 41.5959 19.6267C41.2369 20.091 40.9666 20.6175 40.7985 21.1798C40.6969 21.4969 40.6372 21.8259 40.6209 22.1585C40.6104 22.3482 40.5969 22.4918 40.5844 22.624C40.5655 22.8236 40.5491 22.9975 40.5491 23.2657C40.5466 23.4512 40.5555 23.6367 40.5756 23.8211C40.5529 23.6095 40.6361 24.0252 40.6361 24.0932C40.6738 24.2406 40.7154 24.388 40.7683 24.5353C40.7731 24.5482 40.7779 24.5612 40.7828 24.5743C40.8008 24.6229 40.8193 24.6729 40.8401 24.7205C40.9767 24.9834 41.1284 25.2381 41.2945 25.4833C41.2965 25.4832 41.34 25.5392 41.3827 25.5943C41.4121 25.6321 41.4411 25.6694 41.456 25.6879C41.5467 25.7937 41.6412 25.8957 41.7395 25.9939C41.9397 26.1829 42.1589 26.3794 42.3629 26.5607L42.4952 26.659C42.564 26.7113 42.6348 26.7596 42.7062 26.8082C42.7328 26.8264 42.7595 26.8446 42.7862 26.863C43.1132 27.0793 43.4526 27.2761 43.8027 27.4525L44.0312 27.5588C44.1775 27.6108 44.3121 27.6916 44.4269 27.7968C44.5538 27.9131 44.6533 28.0562 44.718 28.2158C44.7828 28.3753 44.8112 28.5473 44.8013 28.7192C44.7913 28.8911 44.7432 29.0587 44.6604 29.2097L44.1087 30.4718L40.175 39.4728C39.869 40.1756 38.8751 40.1492 38.3952 39.7033C38.1761 39.503 37.9418 39.3103 37.7075 39.1251C37.6796 39.1121 37.7224 39.1487 37.7485 39.171C37.7753 39.1939 37.7845 39.2017 37.6811 39.1251L37.5035 38.9929L37.1256 38.7208C36.8346 38.5281 36.5361 38.3429 36.2338 38.1729C36.0713 38.0746 35.8748 37.9802 35.6934 37.8933L35.4403 37.7761C35.4663 37.7957 35.5187 37.819 35.5182 37.8202C35.5178 37.821 35.4886 37.8098 35.3987 37.7761C35.0898 37.6542 34.7713 37.5582 34.4464 37.4889C34.442 37.488 34.4194 37.4846 34.3907 37.4803C34.3543 37.4748 34.3081 37.4678 34.2761 37.4625H34.1063C33.9543 37.4526 33.8019 37.4513 33.6497 37.4586C33.6706 37.4601 33.6034 37.4726 33.5279 37.4867C33.4662 37.4982 33.3989 37.5108 33.3695 37.5192C33.167 37.5914 32.9563 37.6384 32.7422 37.659H32.63C32.6199 37.668 32.6078 37.6804 32.5948 37.6968C32.6012 37.6876 32.6069 37.6798 32.612 37.6732C32.6015 37.6808 32.5883 37.6891 32.5722 37.6968L32.3379 37.8139C32.2132 37.8895 32.1301 37.9424 31.96 38.0557C31.9483 38.0656 31.9364 38.0755 31.9245 38.0854C31.8862 38.1173 31.8472 38.1497 31.8126 38.1842C31.6791 38.3023 31.5529 38.4285 31.4348 38.5621L31.4347 38.5621C31.3818 38.6226 31.3289 38.683 31.2798 38.7473C31.1238 38.9828 30.98 39.2262 30.8491 39.4766C30.8173 39.54 30.7878 39.6057 30.7588 39.6702C30.7498 39.6902 30.7409 39.7101 30.7319 39.7297C30.7094 39.7955 30.6853 39.8613 30.6611 39.9274C30.6324 40.0057 30.6036 40.0844 30.577 40.1643C30.4976 40.425 30.4296 40.6858 30.3692 40.9503C30.3389 41.0939 30.3125 41.2337 30.2898 41.3773C30.2633 41.434 30.2633 41.4906 30.2633 41.5435C30.2572 41.5967 30.2505 41.6499 30.2438 41.7031C30.2215 41.8804 30.1991 42.0577 30.1991 42.2351C30.1557 42.7481 30.1557 43.2638 30.1991 43.7768C30.1991 44.0774 30.0797 44.3658 29.8671 44.5784C29.6545 44.791 29.3661 44.9104 29.0655 44.9104H19.1651C18.9905 44.9103 18.8183 44.8699 18.6618 44.7923C18.5054 44.7147 18.369 44.602 18.2633 44.463C18.1576 44.324 18.0854 44.1625 18.0524 43.991C18.0194 43.8196 18.0265 43.6428 18.0731 43.4745C18.1061 43.3147 18.1291 43.1548 18.1524 42.9935C18.161 42.9336 18.1697 42.8736 18.1789 42.8132C18.1195 43.132 18.148 42.9286 18.1682 42.7846C18.1724 42.7545 18.1762 42.727 18.1789 42.7074C18.1815 42.6873 18.1845 42.6666 18.1875 42.6454C18.2013 42.5471 18.2166 42.4383 18.2166 42.3295C18.2544 42.031 18.2544 41.7325 18.2544 41.4302C18.2595 41.1354 18.2519 40.8407 18.2318 40.5459C18.2277 40.4983 18.2216 40.4501 18.2156 40.4018C18.2077 40.3389 18.1997 40.2759 18.1961 40.2133C18.1843 40.1656 18.1486 39.9295 18.1486 39.8922C18.0851 39.582 18.0005 39.2765 17.8955 38.9778C17.869 38.9173 17.8426 38.8606 17.8123 38.8002C17.7554 38.6864 17.691 38.5766 17.6196 38.4714C17.6101 38.4556 17.5717 38.4089 17.5419 38.3727C17.5004 38.3223 17.4758 38.2924 17.5705 38.3958C17.555 38.379 17.5401 38.361 17.5251 38.343C17.4997 38.3127 17.4743 38.2821 17.4458 38.256C17.4405 38.2512 17.4322 38.2436 17.4219 38.2342C17.344 38.1634 17.1538 37.9902 17.3173 38.1238C17.2512 38.069 17.1822 38.0179 17.1132 37.9669C17.0443 37.9159 16.9753 37.8649 16.9092 37.8101C16.8676 37.7837 16.7788 37.6996 16.7344 37.6576C16.69 37.6155 16.69 37.6155 16.8261 37.7572C16.8327 37.7647 16.839 37.7713 16.8448 37.7772C16.8306 37.7707 16.8131 37.7639 16.7921 37.7572C16.7164 37.7306 16.6395 37.7079 16.5616 37.6892C16.5374 37.6829 16.4818 37.6722 16.4278 37.662C16.3537 37.6478 16.2828 37.6343 16.3008 37.6332C16.0379 37.6139 15.7737 37.6162 15.5111 37.6401C15.4582 37.6628 15.0123 37.6968 15.2276 37.6628C15.0614 37.6892 14.9027 37.7194 14.7402 37.7534C14.4303 37.8177 14.1394 37.897 13.8257 37.9915C13.5121 38.086 13.2022 38.1956 12.8961 38.3089L12.4578 38.4865L12.2802 38.5621C11.6735 38.8283 11.083 39.1298 10.5117 39.4652C10.2521 39.6164 9.94315 39.6583 9.65266 39.5817C9.36217 39.5052 9.11393 39.3165 8.96246 39.0571L8.36541 37.9651L4.20877 30.3471C3.94048 29.8596 4.04251 29.0472 4.60932 28.7978C4.85677 28.6854 5.09773 28.5592 5.33106 28.4199C5.57291 28.2801 5.81097 28.1289 6.04147 27.9702C6.17751 27.8758 6.31354 27.7775 6.4458 27.6755C6.30332 27.7811 6.42274 27.6855 6.54452 27.5881C6.61007 27.5356 6.67631 27.4826 6.70276 27.4601C6.99739 27.2051 7.27508 26.9312 7.53408 26.6401L7.73436 26.4096C7.75035 26.3903 7.76267 26.3757 7.772 26.3647C7.7793 26.354 7.79135 26.337 7.80993 26.3113C7.94587 26.1266 8.072 25.9349 8.18781 25.737C8.29778 25.5511 8.39743 25.3594 8.48633 25.1626C8.49371 25.1466 8.49869 25.1358 8.50334 25.1249C8.513 25.1023 8.5213 25.0791 8.54679 25.0077C8.58458 24.9019 8.62237 24.7961 8.6526 24.6903C8.73497 24.4523 8.7911 24.2065 8.82032 23.9574C8.75599 23.8169 8.72298 23.6559 8.73195 23.4773C8.78242 23.0605 8.74247 22.6378 8.61481 22.2378C8.59796 22.1753 8.57805 22.1142 8.558 22.0528C8.54657 22.0177 8.5351 21.9825 8.52412 21.9469C8.51809 21.9278 8.51363 21.913 8.51046 21.9015C8.50412 21.8901 8.49617 21.8752 8.48633 21.8562C8.402 21.6839 8.30867 21.5161 8.2067 21.3536L8.10727 21.2092C8.10365 21.2051 8.09299 21.1915 8.07932 21.174C8.05091 21.1376 8.00952 21.0846 7.99131 21.0664C7.93614 21.0129 7.88172 20.9572 7.82672 20.9009C7.7574 20.83 7.68718 20.7581 7.61344 20.6885L7.37915 20.4845L7.32113 20.4372C7.18909 20.3386 7.0535 20.2436 6.91437 20.1557C6.63821 19.98 6.35177 19.821 6.05659 19.6796L5.86387 19.5927C5.8461 19.5834 5.83272 19.576 5.82304 19.5704C5.788 19.5575 5.75319 19.5439 5.71838 19.5304C5.66264 19.5086 5.60691 19.4869 5.55023 19.468C5.3137 19.3784 5.07129 19.3052 4.82471 19.2488C4.6593 19.202 4.5067 19.1181 4.37848 19.0036C4.25026 18.8891 4.14976 18.7469 4.08459 18.5878C4.01943 18.4287 3.9913 18.2569 4.00234 18.0853C4.01338 17.9138 4.0633 17.7469 4.14831 17.5975L4.76425 16.5055L8.89822 8.90259C8.97322 8.77363 9.07294 8.66075 9.19166 8.57041C9.31038 8.48007 9.44576 8.41406 9.59004 8.37614C9.73432 8.33823 9.88467 8.32917 10.0325 8.34947C10.1802 8.36978 10.3226 8.41906 10.4513 8.49448C10.6969 8.64941 10.9501 8.78922 11.207 8.92526C11.464 9.06129 11.7285 9.19355 11.993 9.32203L12.4805 9.54498L12.5447 9.57143L12.7903 9.66968L12.7904 9.66969C13.1682 9.80194 13.5461 9.93419 13.924 10.0476C14.2414 10.1382 14.778 10.2554 14.9669 10.2818L15.1407 10.2743L15.4619 10.2932C15.5777 10.3058 15.6917 10.3016 15.8064 10.2974C15.8639 10.2953 15.9215 10.2932 15.9796 10.2932C16.0214 10.2932 16.0482 10.2944 16.064 10.2965C16.0684 10.2954 16.073 10.2943 16.0779 10.2932C16.161 10.2743 16.2404 10.2554 16.3197 10.2365C16.3891 10.22 16.4556 10.1977 16.5243 10.1746C16.5341 10.1713 16.544 10.168 16.554 10.1647C16.5637 10.1618 16.5725 10.1592 16.5806 10.1569ZM7.37269 20.4732C7.3727 20.4733 7.37116 20.4722 7.36811 20.47C7.37116 20.4721 7.37268 20.4732 7.37269 20.4732ZM16.8954 37.8122C16.8934 37.8153 16.8745 37.8067 16.8448 37.7772C16.8825 37.7943 16.8974 37.8091 16.8954 37.8122ZM18.009 11.9368C17.9397 11.9947 17.8636 12.0443 17.7821 12.0843C16.0779 12.9383 14.0902 12.5604 12.3785 11.918C11.6726 11.6612 10.9846 11.3586 10.319 11.0123L10.2624 11.1169L6.77925 17.5005C9.04708 18.4543 10.8761 20.4444 10.9961 22.9518C11.0675 23.1027 11.1049 23.268 11.105 23.4357C11.075 26.277 9.16438 28.8181 6.74711 30.2434L6.767 30.2791L10.398 36.9371C10.9546 36.6577 11.5248 36.4055 12.1064 36.1815C13.4252 35.66 14.914 35.2292 16.3462 35.3653C17.1297 35.4077 17.8803 35.6944 18.4925 36.1853C18.51 36.2028 18.531 36.2201 18.5508 36.235C18.5298 36.2219 18.5031 36.2054 18.4698 36.1853C18.5781 36.2548 18.6805 36.3332 18.7759 36.4195C18.9006 36.5166 19.0169 36.6241 19.1236 36.7407C19.3614 36.9991 19.5681 37.2845 19.7395 37.591C20.5499 39.0767 20.6758 40.9344 20.4878 42.6658H27.9072C27.917 42.3109 27.9454 41.9565 27.9923 41.604C28.1013 40.2279 28.5366 38.8976 29.262 37.7232C29.6995 37.0621 30.2663 36.4965 30.9284 36.0606C31.2903 35.8251 31.6816 35.6383 32.0923 35.5051C32.2625 35.4631 32.4364 35.4374 32.6114 35.4283C32.6122 35.4274 32.6129 35.4266 32.6137 35.4257C32.6553 35.3804 32.8102 35.3502 32.8669 35.3502C34.9028 34.8584 37.0648 35.8727 38.7715 37.1527L38.7731 37.1488L42.2174 29.2658C41.8585 29.0601 41.5133 28.8306 41.184 28.5786C39.9975 27.7398 39.0862 26.5682 38.5653 25.2117C38.3049 24.4613 38.2133 23.6626 38.297 22.8727C38.3316 21.9883 38.4737 21.1115 38.7202 20.2615C39.098 19.2305 39.6752 18.284 40.4189 17.4762C40.8894 16.965 41.4207 16.5157 41.9999 16.1377L41.9548 16.0709L37.879 10.0397C37.4028 10.4312 36.8999 10.79 36.3736 11.1132C35.0662 11.9256 33.5244 12.5037 31.9713 12.1939C31.231 12.0315 30.5331 11.7151 29.923 11.2653C29.313 10.8154 28.8045 10.2421 28.4306 9.58276C27.7186 8.32893 27.4858 6.75352 27.6377 5.26742H20.4093C20.6695 7.66535 20.3465 10.4051 18.3036 11.816C18.2114 11.87 18.1122 11.9106 18.009 11.9368ZM18.6165 36.2792C18.6102 36.2763 18.5821 36.2587 18.5508 36.235C18.6071 36.2703 18.6227 36.2821 18.6165 36.2792ZM26.1218 28.794C28.1548 28.0949 29.5265 25.9712 29.5492 23.8136C29.5485 22.677 29.1845 21.5704 28.5102 20.6555C27.8359 19.7405 26.8867 19.0652 25.8012 18.7281C24.7158 18.391 23.551 18.4099 22.477 18.7819C21.4031 19.154 20.4762 19.8597 19.8319 20.796C19.1876 21.7323 18.8596 22.8501 18.8957 23.9861C18.9319 25.1221 19.3304 26.2167 20.033 27.1101C20.7356 28.0035 21.7055 28.6488 22.801 28.9518C23.8964 29.2547 25.06 29.1994 26.1218 28.794ZM31.8154 23.7451C31.7863 22.2087 31.2978 20.7157 30.412 19.4588C29.513 18.1832 28.2474 17.2112 26.7831 16.6717C25.3072 16.1452 23.7045 16.0883 22.195 16.5088C20.6855 16.9294 19.3431 17.8067 18.352 19.0205C17.361 20.2343 16.7698 21.7251 16.6596 23.2882C16.5495 24.8513 16.9257 26.4102 17.7367 27.751C18.5596 29.0787 19.7672 30.1243 21.199 30.7487C22.6307 31.3731 24.2187 31.5467 25.7515 31.2464C29.2596 30.5749 31.7886 27.3543 31.8163 23.8321C31.8163 23.8259 31.8164 23.8198 31.8164 23.8136M31.8164 23.8136C31.8167 23.7904 31.8163 23.7675 31.8154 23.7451L31.8164 23.8136Z" fill="black"/>
</g>
</g>
</svg>
