<svg width="48" height="48" viewBox="0 0 48 48" fill="none" xmlns="http://www.w3.org/2000/svg">
<path fill-rule="evenodd" clip-rule="evenodd" d="M24.719 6.95411C24.3259 6.54738 23.674 6.54738 23.2809 6.9541L19.5872 10.7759C19.1175 11.2618 18.4707 11.5362 17.7948 11.5362H12.5362C11.984 11.5362 11.5362 11.984 11.5362 12.5362V17.7948C11.5362 18.4707 11.2618 19.1175 10.7759 19.5872L6.9541 23.281C6.54738 23.674 6.54738 24.326 6.9541 24.7191L10.7759 28.4128C11.2618 28.8825 11.5362 29.5293 11.5362 30.2052V35.4638C11.5362 36.016 11.984 36.4638 12.5362 36.4638H17.7948C18.4707 36.4638 19.1175 36.7382 19.5872 37.2241L23.2809 41.0459C23.674 41.4526 24.3259 41.4526 24.719 41.0459L28.4128 37.2241C28.8824 36.7382 29.5293 36.4638 30.2052 36.4638H35.4638C36.016 36.4638 36.4638 36.016 36.4638 35.4638V30.2052C36.4638 29.5293 36.7382 28.8824 37.2242 28.4128L41.0459 24.7191C41.4526 24.326 41.4526 23.6741 41.0459 23.281L37.2242 19.5872C36.7382 19.1176 36.4638 18.4707 36.4638 17.7948V12.5362C36.4638 11.984 36.016 11.5362 35.4638 11.5362H30.2052C29.5293 11.5362 28.8824 11.2618 28.4128 10.7759L24.719 6.95411ZM22.2076 3.76039C23.1875 2.74654 24.8125 2.74654 25.7924 3.76039L30.4167 8.54494H36.9623C38.339 8.54494 39.4551 9.66099 39.4551 11.0377V17.5833L44.2396 22.2076C45.2535 23.1875 45.2535 24.8125 44.2396 25.7924L39.4551 30.4167V36.9623C39.4551 38.339 38.339 39.4551 36.9623 39.4551H30.4167L25.7924 44.2396C24.8125 45.2535 23.1875 45.2535 22.2076 44.2396L17.5833 39.4551H11.0377C9.66099 39.4551 8.54494 38.339 8.54494 36.9623V30.4167L3.76039 25.7924C2.74654 24.8125 2.74654 23.1875 3.76039 22.2076L8.54494 17.5833V11.0377C8.54494 9.66098 9.66099 8.54494 11.0377 8.54494H17.5833L22.2076 3.76039Z" fill="black"/>
<path fill-rule="evenodd" clip-rule="evenodd" d="M14.5275 24C14.5275 18.7685 18.7685 14.5275 24 14.5275C29.2315 14.5275 33.4725 18.7685 33.4725 24C33.4725 29.2315 29.2315 33.4725 24 33.4725C18.7685 33.4725 14.5275 29.2315 14.5275 24ZM24 17.5188C20.4206 17.5188 17.5188 20.4206 17.5188 24C17.5188 27.5794 20.4206 30.4812 24 30.4812C27.5794 30.4812 30.4812 27.5794 30.4812 24C30.4812 20.4206 27.5794 17.5188 24 17.5188Z" fill="black"/>
</svg>
