<svg width="48" height="48" viewBox="0 0 48 48" fill="none" xmlns="http://www.w3.org/2000/svg">
<g id="moon"><path id="Vector" d="M36.0882 9.17485L31.092 13.0516L32.889 19.1665L27.6953 15.5495L22.5016 19.1665L24.2987 13.0516L19.3025 9.17485L25.6021 8.995L27.6953 3L29.7886 8.995L36.0882 9.17485ZM43 22.9833L39.7613 25.4813L40.9265 29.438L37.5693 27.0999L34.2122 29.438L35.3773 25.4813L32.1386 22.9833L36.2067 22.8834L37.5693 18.9867L38.9319 22.8834L43 22.9833ZM38.4975 32.8751C40.1365 32.7152 41.8941 35.0733 40.8475 36.572C40.2155 37.4713 39.5441 38.3106 38.7147 39.1099C30.9932 46.9634 18.4928 46.9634 10.7911 39.1099C3.06964 31.3164 3.06964 18.647 10.7911 10.8535C11.581 10.0541 12.4104 9.33472 13.2991 8.69525C14.7802 7.63614 17.1104 9.41465 16.9524 11.0733C16.4193 16.7885 18.3151 22.7236 22.6596 27.0999C26.9844 31.4963 32.8298 33.4147 38.4975 32.8751ZM35.2588 36.9117C29.6701 36.592 24.1407 34.254 19.8554 29.9775C15.5701 25.6012 13.2793 19.9858 12.9634 14.3505C7.41419 20.6253 7.63141 30.2573 13.5755 36.2923C19.5394 42.3072 29.0579 42.5271 35.2588 36.9117Z" fill="currentcolor"/></g>
</svg>
