<svg width="48" height="48" viewBox="0 0 48 48" fill="none" xmlns="http://www.w3.org/2000/svg">
<g id="pencil">
<path id="Vector" d="M5.09652 41.3064L5.75837 41.9081L21.0453 25.0426C20.5942 24.5178 20.3621 23.8382 20.3973 23.1454C20.4325 22.4526 20.7324 21.8 21.2343 21.3237C23.0577 19.2721 25.2161 21.278 25.2161 21.278C25.2161 21.278 27.4167 23.2381 25.5531 25.2957C25.1315 25.8434 24.5169 26.2075 23.8361 26.3129C23.1554 26.4182 22.4605 26.2568 21.895 25.8619L6.61649 42.7198L7.27834 43.3215L34.8653 31.4018L36.1861 16.2188L32.6722 13.0078L29.15 9.80432L14.2531 12.5757L5.09652 41.3064Z" fill="black"/>
<g id="Vector_2">
<path d="M38.0865 14.6401L30.7675 7.95976C30.1469 7.39329 29.1867 7.44009 28.6228 8.06428L28.6175 8.0702C28.0537 8.69439 28.0997 9.65961 28.7203 10.2261L36.0393 16.9064C36.66 17.4728 37.6202 17.426 38.184 16.8018L38.1893 16.7959C38.7532 16.1717 38.7071 15.2065 38.0865 14.6401Z" fill="black"/>
<path d="M41.3549 13.5276L31.5649 4.5919C30.9442 4.02543 29.984 4.07223 29.4202 4.69642L29.4149 4.70234C28.851 5.32653 28.8971 6.29175 29.5177 6.85821L39.3078 15.7939C39.9284 16.3604 40.8886 16.3136 41.4524 15.6894L41.4577 15.6835C42.0216 15.0593 41.9755 14.0941 41.3549 13.5276Z" fill="black"/>
</g>
</g>
</svg>
