<svg width="48" height="48" viewBox="0 0 48 48" fill="none" xmlns="http://www.w3.org/2000/svg">
<g id="study">
<g id="Study">
<path id="Union" fill-rule="evenodd" clip-rule="evenodd" d="M22.8174 11.0074C22.74 11.0148 22.6674 11.0356 22.6003 11.0675L16.2386 13.2741L5.9838 16.8325L3.62409 17.6505C3.44461 17.7112 3.28643 17.8416 3.17374 18.0217C3.06104 18.2018 3.00003 18.4218 3.00003 18.648C3.00003 18.8741 3.06104 19.0941 3.17374 19.2742C3.28643 19.4543 3.44461 19.5847 3.62409 19.6454L8.26976 21.2734L8.20992 30.1652V31.3267C8.20326 31.3615 8.19808 31.3968 8.19442 31.4324C8.18052 31.5674 8.18868 31.7045 8.21845 31.8357C8.28269 32.0971 8.4278 32.3183 8.62336 32.4527C8.81892 32.5872 9.04977 32.6246 9.26752 32.557L9.55182 32.4983L9.83061 32.4483C9.84349 32.4469 9.86521 32.4441 9.89867 32.4397L10.1403 32.4052C11.0283 32.2775 11.9215 32.2118 12.8156 32.2084C13.3842 32.2084 13.9244 32.2257 14.4788 32.2775C14.7631 32.3051 15.0701 32.3396 15.3658 32.3844H15.4141L15.6217 32.4224L16.1078 32.5225C16.7006 32.6624 17.2848 32.8515 17.8563 33.0885C17.9702 33.1346 18.0806 33.185 18.193 33.2362L18.2856 33.2784L18.4135 33.3405L18.5699 33.4233C18.8467 33.575 19.1163 33.7455 19.3773 33.9341L19.3907 33.9438C19.5259 34.0409 19.6657 34.1413 19.7895 34.2482C19.8577 34.3034 19.9231 34.362 19.9884 34.4207L19.9885 34.4208C20.0305 34.4565 20.0475 34.4698 20.0523 34.4725C20.0615 34.4819 20.0749 34.4953 20.0937 34.514C20.3481 34.7646 20.5875 35.0368 20.8102 35.3285L21.0006 35.5873L21.0291 35.6307L21.0295 35.6312L21.0298 35.6317L21.0306 35.6329C21.0547 35.6696 21.0837 35.7138 21.0963 35.7327C21.1879 35.8822 21.276 36.0452 21.3503 36.1913C21.4328 36.3536 21.5437 36.5744 21.6346 36.7746C21.6744 36.8713 21.7142 36.9679 21.7512 37.0645C21.7659 37.1031 21.7893 37.1658 21.8084 37.2172L21.8084 37.2172L21.8086 37.2177L21.8088 37.2183L21.8251 37.2619C21.8735 37.4497 21.9644 37.6174 22.0874 37.7457C22.2128 37.8766 22.3664 37.9612 22.5302 37.9895C22.6966 38.0184 22.8663 37.987 23.0181 37.8992C23.1698 37.8114 23.2968 37.6711 23.3831 37.496C23.4627 37.3199 23.548 37.1508 23.6361 36.9817L23.7555 36.7677L23.7557 36.7675C23.7856 36.7199 23.8868 36.5594 23.869 36.5845C24.0605 36.2977 24.2676 36.0268 24.489 35.7737C24.5971 35.6495 24.7108 35.5287 24.8273 35.4286C24.8421 35.414 24.8692 35.3881 24.8944 35.3641L24.8947 35.3638L24.9362 35.324L24.9483 35.3122L25.1259 35.1559C25.3856 34.9346 25.6552 34.7307 25.9333 34.545L26.0016 34.5002C26.1241 34.4195 26.2424 34.3418 26.3768 34.2689L26.5729 34.155L26.7037 34.086C26.7153 34.086 26.7842 34.0464 26.7983 34.0359C26.8453 34.0158 26.8915 33.9934 26.9369 33.9686L27.1416 33.872C27.3121 33.7961 27.4856 33.7201 27.659 33.6511C28.3112 33.3984 28.9759 33.1955 29.6491 33.0437C29.9903 32.9643 30.3314 32.8987 30.6754 32.84C30.5719 32.8586 30.6072 32.855 30.6652 32.8491H30.6652C30.7043 32.8451 30.7537 32.84 30.7778 32.84L31.0336 32.8021L31.5425 32.7399C32.1936 32.6709 32.8503 32.6295 33.5042 32.6157C34.5704 32.5881 35.6336 32.6157 36.6969 32.733C37.0665 32.7676 37.4361 32.8124 37.8057 32.8642C37.9393 32.8849 38.2947 32.9367 37.9052 32.8642H38.0132C38.5506 32.9643 39.0936 32.6019 39.0936 31.8667V21.7672C39.3748 21.69 39.6559 21.6128 39.937 21.5353L40.7397 28.3188L40.8318 29.1121C40.7496 29.2675 40.7027 29.4466 40.7027 29.6371C40.7027 30.2074 41.1224 30.6744 41.6544 30.7146L41.4504 33.6616H44.5066L42.3322 30.5112C42.5887 30.3148 42.7553 29.9965 42.7553 29.6371C42.7553 29.381 42.6706 29.1457 42.5291 28.9605C42.5251 28.9294 42.52 28.8984 42.5137 28.8676L41.6153 21.2745L41.5909 21.0737C42.4837 20.8207 43.3747 20.56 44.2621 20.2839L44.3901 20.2459C45.2259 20.0113 45.1804 18.5202 44.3901 18.251L37.1859 15.8109L25.7456 11.935L23.2313 11.0818C23.1113 11.0147 22.9723 10.985 22.8174 11.0074ZM22.8964 13.1208L20.7589 13.8609L10.507 17.4158L6.94583 18.6505L8.68182 19.2554L9.13932 19.4146C9.21222 19.4158 9.28493 19.4283 9.35565 19.4521L11.0615 20.0526L17.5002 22.3253L22.8796 24.1984L24.5004 23.7387L32.7821 21.3917L38.0132 19.9111C38.0735 19.8908 38.1352 19.8788 38.1973 19.8749L40.7178 19.1604L29.8737 15.4865L22.8964 13.1208ZM23.096 26.2768C23.114 26.2744 23.132 26.2717 23.1499 26.2686C23.8384 26.1027 24.5139 25.8998 25.2048 25.6923L25.5039 25.6025L36.3273 22.5342C36.6815 22.4339 37.0359 22.3348 37.3906 22.2363V30.7029C36.2114 30.5549 35.0257 30.4928 33.8397 30.5172C30.9967 30.5448 28.0144 30.9728 25.4357 32.5294C24.3993 33.1206 23.4838 33.9704 22.7458 35.0161C22.2337 34.0777 21.5827 33.2559 20.8215 32.595C19.7433 31.696 18.533 31.0563 17.2564 30.7105C15.0254 30.1051 12.7261 29.9627 10.4559 30.2894C10.2725 30.3126 10.0884 30.3366 9.90423 30.3631L9.9639 21.8671L10.5184 22.0614L14.4992 23.4423L21.4641 25.8993C21.5729 25.9374 21.6877 25.9842 21.806 26.0325C22.2131 26.1987 22.6625 26.3821 23.059 26.2858L23.096 26.2768Z" fill="black"/>
</g>
</g>
</svg>
