<svg width="48" height="48" viewBox="0 0 48 48" fill="none" xmlns="http://www.w3.org/2000/svg">
<g id="sun">
<path id="Vector" d="M9.2042 36.1517C8.46476 36.8987 8.46643 38.1024 9.20796 38.8473C9.95428 39.597 11.1674 39.5987 11.9158 38.851L12.6433 38.1243C13.391 37.3774 13.3927 36.1661 12.6471 35.4172C11.8967 34.6633 10.6759 34.6651 9.92764 35.4209L9.2042 36.1517ZM22.0909 43.0909C22.0909 44.1453 23.1747 45 24.2291 45C25.2835 45 25.9091 44.1453 25.9091 43.0909V41.2516C25.9091 40.1972 25.0544 39.3425 24 39.3425C22.9456 39.3425 22.0909 40.1972 22.0909 41.2516V43.0909ZM24 12.4931C20.9621 12.4931 18.0486 13.7055 15.9004 15.8634C13.7523 18.0214 12.5455 20.9482 12.5455 24C12.5455 27.0518 13.7523 29.9786 15.9004 32.1366C18.0486 34.2945 20.9621 35.5068 24 35.5068C27.0379 35.5068 29.9514 34.2945 32.0996 32.1366C34.2477 29.9786 35.4545 27.0518 35.4545 24C35.4545 17.6329 30.3191 12.4931 24 12.4931ZM39.2727 24C39.2727 25.0592 40.1314 25.9178 41.1905 25.9178H43.0822C44.1414 25.9178 45 25.0592 45 24C45 22.9408 44.1414 22.0822 43.0822 22.0822H41.1905C40.1314 22.0822 39.2727 22.9408 39.2727 24ZM35.3529 35.4172C34.6073 36.1661 34.609 37.3774 35.3567 38.1243L36.0842 38.851C36.8326 39.5987 38.0457 39.597 38.792 38.8473C39.5336 38.1024 39.5352 36.8987 38.7958 36.1517L38.0724 35.4209C37.3241 34.665 36.1033 34.6633 35.3529 35.4172ZM38.7958 11.8483C39.5352 11.1013 39.5336 9.89764 38.792 9.15273C38.0457 8.403 36.8326 8.40131 36.0842 9.14896L35.3567 9.87572C34.609 10.6226 34.6073 11.8339 35.3529 12.5828C36.1033 13.3366 37.3241 13.3349 38.0724 12.5791L38.7958 11.8483ZM25.9091 4.90909C25.9091 3.85473 25.0544 3 24 3C22.9456 3 22.0909 3.85473 22.0909 4.90909V6.74844C22.0909 7.8028 22.9456 8.65753 24 8.65753C25.0544 8.65753 25.9091 7.8028 25.9091 6.74844V4.90909ZM8.72727 24C8.72727 22.9408 7.86864 22.0822 6.80946 22.0822H4.91781C3.85863 22.0822 3 22.9408 3 24C3 25.0592 3.85863 25.9178 4.91781 25.9178H6.80947C7.86864 25.9178 8.72727 25.0592 8.72727 24ZM12.6471 12.5828C13.3927 11.8339 13.391 10.6226 12.6433 9.87572L11.9158 9.14896C11.1674 8.40131 9.95428 8.403 9.20796 9.15273C8.46643 9.89764 8.46476 11.1013 9.20421 11.8483L9.92764 12.5791C10.6759 13.3349 11.8967 13.3366 12.6471 12.5828Z" fill="black"/>
</g>
</svg>
