<svg width="48" height="48" viewBox="0 0 48 48" fill="none" xmlns="http://www.w3.org/2000/svg">
<path fill-rule="evenodd" clip-rule="evenodd" d="M24 6L39.2583 6.43549C41.9544 6.51244 44.1844 8.5785 44.491 11.2835C45.1697 17.2713 45.1697 23.3177 44.491 29.3055C44.1844 32.0105 41.9544 34.0765 39.2583 34.1535L27.6711 34.4842V38.8236H34.4888C35.3578 38.8236 36.0622 39.5347 36.0622 40.4118C36.0622 41.2889 35.3578 42 34.4888 42H13.5112C12.6423 42 11.9379 41.2889 11.9379 40.4118C11.9379 39.5347 12.6423 38.8236 13.5112 38.8236H20.3289V34.4842L8.74165 34.1535C6.04557 34.0765 3.81561 32.0105 3.50901 29.3055C2.83033 23.3177 2.83033 17.2713 3.50901 11.2835C3.81561 8.5785 6.04557 6.51244 8.74165 6.43549L24 6ZM24 9.17768L8.83059 9.61064C7.69946 9.64292 6.76389 10.5097 6.63526 11.6446C5.98377 17.3925 5.98377 23.1965 6.63526 28.9444C6.76389 30.0793 7.69946 30.9461 8.83059 30.9784L24 31.4113L39.1694 30.9784C40.3005 30.9461 41.2361 30.0793 41.3647 28.9444C42.0162 23.1965 42.0162 17.3925 41.3647 11.6446C41.2361 10.5097 40.3005 9.64292 39.1694 9.61064L24 9.17768Z" fill="black"/>
</svg>
