<svg width="48" height="48" viewBox="0 0 48 48" fill="none" xmlns="http://www.w3.org/2000/svg">
<g id="vector">
<path id="Vector 1" d="M37.4327 39.0542L36.5542 35.0673L32.5673 35.9458L33.4458 39.9327L37.4327 39.0542ZM17 26L16.5075 26.0862L16.5454 26.3029L16.7308 26.4213L17 26ZM13.0024 3.15646L10.6565 6.49762L13.9976 8.84354L16.3435 5.50238L13.0024 3.15646ZM35.2692 37.0787L17.2692 25.5787L16.7308 26.4213L34.7308 37.9213L35.2692 37.0787ZM17.4925 25.9138L13.9925 5.91381L13.0075 6.08619L16.5075 26.0862L17.4925 25.9138Z" fill="black"/>
<rect id="Rectangle 4" width="15.5556" height="15.5556" transform="matrix(1 0 0 -1 10 34.4445)" fill="black"/>
</g>
</svg>
