<svg width="63" height="22" viewBox="0 0 63 22" fill="none" xmlns="http://www.w3.org/2000/svg">
<g clip-path="url(#clip0_51_5260)">
<path d="M62.5519 18.0208C62.5519 19.6777 61.2088 21.0208 59.5519 21.0208H3.44824C1.79139 21.0208 0.448242 19.6777 0.448242 18.0208V3.02081C0.448242 1.36396 1.79139 0.020813 3.44824 0.020813H59.5519C61.2088 0.020813 62.5519 1.36396 62.5519 3.02081V18.0208ZM1.29554 17.1679C1.29554 18.8248 2.63869 20.1679 4.29554 20.1679H58.7046C60.3615 20.1679 61.7046 18.8248 61.7046 17.1679V3.87373C61.7046 2.21687 60.3615 0.873729 58.7046 0.873729H4.29554C2.63869 0.873729 1.29554 2.21687 1.29554 3.87373V17.1679Z" fill="url(#paint0_linear_51_5260)"/>
<path d="M54.873 5.74755C54.8756 5.63206 54.9235 5.52231 55.0063 5.44236C55.0892 5.36241 55.2001 5.3188 55.3148 5.32109C55.3716 5.31979 55.4281 5.32982 55.481 5.35058C55.534 5.37134 55.5823 5.40244 55.6232 5.44207C55.6642 5.4817 55.697 5.5291 55.7196 5.58152C55.7423 5.63395 55.7545 5.69037 55.7554 5.74755C55.7543 5.80467 55.7421 5.86102 55.7193 5.91337C55.6966 5.96573 55.6638 6.01305 55.6229 6.05266C55.582 6.09226 55.5337 6.12336 55.4809 6.14418C55.428 6.165 55.3716 6.17514 55.3148 6.17401C55.2001 6.17629 55.0892 6.13268 55.0063 6.05273C54.9235 5.97278 54.8756 5.86303 54.873 5.74755ZM53.0913 5.74755C53.0924 5.69042 53.1046 5.63407 53.1274 5.58172C53.1501 5.52937 53.1829 5.48204 53.2238 5.44244C53.2647 5.40283 53.313 5.37173 53.3658 5.35091C53.4187 5.33009 53.4751 5.31996 53.5319 5.32109C53.6466 5.3188 53.7575 5.36241 53.8404 5.44236C53.9232 5.52231 53.9711 5.63206 53.9737 5.74755C53.9711 5.86303 53.9232 5.97278 53.8404 6.05273C53.7575 6.13268 53.6466 6.17629 53.5319 6.17401C53.4751 6.17514 53.4187 6.165 53.3658 6.14418C53.313 6.12336 53.2647 6.09226 53.2238 6.05266C53.1829 6.01305 53.1501 5.96573 53.1274 5.91337C53.1046 5.86102 53.0924 5.80467 53.0913 5.74755ZM51.3071 5.74755C51.3096 5.63206 51.3576 5.52231 51.4404 5.44236C51.5232 5.36241 51.6342 5.3188 51.7489 5.32109C51.8057 5.31979 51.8622 5.32982 51.9151 5.35058C51.968 5.37134 52.0164 5.40244 52.0573 5.44207C52.0983 5.4817 52.131 5.5291 52.1537 5.58152C52.1764 5.63395 52.1886 5.69037 52.1895 5.74755C52.1884 5.80467 52.1761 5.86102 52.1534 5.91337C52.1306 5.96573 52.0979 6.01305 52.057 6.05266C52.016 6.09226 51.9678 6.12336 51.9149 6.14418C51.8621 6.165 51.8057 6.17514 51.7489 6.17401C51.6342 6.17629 51.5232 6.13268 51.4404 6.05273C51.3576 5.97278 51.3096 5.86303 51.3071 5.74755ZM49.5253 5.74755C49.5264 5.69042 49.5387 5.63407 49.5615 5.58172C49.5842 5.52937 49.617 5.48204 49.6579 5.44244C49.6988 5.40283 49.7471 5.37173 49.7999 5.35091C49.8528 5.33009 49.9092 5.31996 49.9659 5.32109C50.0807 5.3188 50.1916 5.36241 50.2744 5.44236C50.3573 5.52231 50.4052 5.63206 50.4077 5.74755C50.4052 5.86303 50.3573 5.97278 50.2744 6.05273C50.1916 6.13268 50.0807 6.17629 49.9659 6.17401C49.9092 6.17514 49.8528 6.165 49.7999 6.14418C49.7471 6.12336 49.6988 6.09226 49.6579 6.05266C49.617 6.01305 49.5842 5.96573 49.5615 5.91337C49.5387 5.86102 49.5264 5.80467 49.5253 5.74755ZM47.7412 5.74755C47.7424 5.69026 47.7549 5.63378 47.7778 5.58134C47.8008 5.5289 47.8338 5.48153 47.8749 5.44192C47.916 5.40232 47.9645 5.37127 48.0176 5.35053C48.0707 5.3298 48.1273 5.31979 48.1842 5.32109C48.2409 5.31996 48.2972 5.3301 48.35 5.35094C48.4028 5.37177 48.451 5.40289 48.4918 5.44251C48.5326 5.48213 48.5653 5.52947 48.5879 5.58181C48.6105 5.63415 48.6226 5.69048 48.6236 5.74755C48.6213 5.8627 48.5738 5.97227 48.4915 6.05222C48.4091 6.13217 48.2986 6.17596 48.1842 6.17401C48.0693 6.1763 47.9583 6.13272 47.8752 6.05281C47.7922 5.97289 47.744 5.86314 47.7412 5.74755ZM45.9606 5.74755C45.9617 5.69042 45.974 5.63407 45.9967 5.58172C46.0195 5.52937 46.0522 5.48204 46.0931 5.44244C46.1341 5.40283 46.1823 5.37173 46.2352 5.35091C46.288 5.33009 46.3445 5.31996 46.4012 5.32109C46.458 5.31996 46.5144 5.33009 46.5672 5.35091C46.6201 5.37173 46.6684 5.40283 46.7093 5.44244C46.7502 5.48204 46.783 5.52937 46.8057 5.58172C46.8284 5.63407 46.8407 5.69042 46.8418 5.74755C46.8407 5.80467 46.8284 5.86102 46.8057 5.91337C46.783 5.96573 46.7502 6.01305 46.7093 6.05266C46.6684 6.09226 46.6201 6.12336 46.5672 6.14418C46.5144 6.165 46.458 6.17514 46.4012 6.17401C46.3445 6.17514 46.288 6.165 46.2352 6.14418C46.1823 6.12336 46.1341 6.09226 46.0931 6.05266C46.0522 6.01305 46.0195 5.96573 45.9967 5.91337C45.974 5.86102 45.9617 5.80467 45.9606 5.74755ZM44.1764 5.74755C44.1775 5.69032 44.1898 5.63386 44.2127 5.58143C44.2355 5.529 44.2684 5.48162 44.3094 5.442C44.3504 5.40238 44.3989 5.37131 44.4519 5.35056C44.5048 5.32981 44.5614 5.31979 44.6182 5.32109C44.675 5.31979 44.7315 5.32982 44.7844 5.35058C44.8374 5.37134 44.8857 5.40244 44.9267 5.44207C44.9676 5.4817 45.0004 5.5291 45.023 5.58152C45.0457 5.63395 45.0579 5.69037 45.0588 5.74755C45.0577 5.80467 45.0455 5.86102 45.0227 5.91337C45 5.96573 44.9672 6.01305 44.9263 6.05266C44.8854 6.09226 44.8371 6.12336 44.7843 6.14418C44.7314 6.165 44.675 6.17514 44.6182 6.17401C44.5613 6.1753 44.5047 6.1653 44.4517 6.14456C44.3986 6.12383 44.3501 6.09277 44.309 6.05317C44.2678 6.01357 44.2348 5.96619 44.2119 5.91375C44.1889 5.86131 44.1765 5.80483 44.1752 5.74755H44.1764ZM42.3935 5.74755C42.396 5.63206 42.4439 5.52231 42.5268 5.44236C42.6096 5.36241 42.7205 5.3188 42.8353 5.32109C42.892 5.31996 42.9484 5.33009 43.0013 5.35091C43.0542 5.37173 43.1024 5.40283 43.1433 5.44244C43.1842 5.48204 43.217 5.52937 43.2398 5.58172C43.2625 5.63407 43.2748 5.69042 43.2759 5.74755C43.2748 5.80467 43.2625 5.86102 43.2398 5.91337C43.217 5.96573 43.1842 6.01305 43.1433 6.05266C43.1024 6.09226 43.0542 6.12336 43.0013 6.14418C42.9484 6.165 42.892 6.17514 42.8353 6.17401C42.7784 6.1753 42.7218 6.1653 42.6687 6.14456C42.6156 6.12383 42.5671 6.09277 42.526 6.05317C42.4849 6.01357 42.4519 5.96619 42.4289 5.91375C42.406 5.86131 42.3935 5.80483 42.3923 5.74755H42.3935ZM40.6105 5.74755C40.6116 5.69042 40.6239 5.63407 40.6466 5.58172C40.6694 5.52937 40.7021 5.48204 40.743 5.44244C40.7839 5.40283 40.8322 5.37173 40.8851 5.35091C40.9379 5.33009 40.9944 5.31996 41.0511 5.32109C41.1079 5.31979 41.1645 5.32981 41.2175 5.35056C41.2705 5.37131 41.3189 5.40238 41.3599 5.442C41.401 5.48162 41.4339 5.529 41.4567 5.58143C41.4795 5.63386 41.4918 5.69032 41.4929 5.74755C41.4904 5.86303 41.4424 5.97278 41.3596 6.05273C41.2768 6.13268 41.1658 6.17629 41.0511 6.17401C40.9942 6.1753 40.9377 6.16528 40.8847 6.14454C40.8317 6.12379 40.7833 6.09271 40.7422 6.0531C40.7012 6.01348 40.6683 5.96609 40.6455 5.91366C40.6227 5.86123 40.6104 5.80478 40.6093 5.74755H40.6105ZM38.8275 5.74755C38.8301 5.63206 38.878 5.52231 38.9608 5.44236C39.0437 5.36241 39.1546 5.3188 39.2693 5.32109C39.3261 5.31996 39.3825 5.33009 39.4354 5.35091C39.4882 5.37173 39.5365 5.40283 39.5774 5.44244C39.6183 5.48204 39.6511 5.52937 39.6738 5.58172C39.6966 5.63407 39.7088 5.69042 39.7099 5.74755C39.7088 5.80467 39.6966 5.86102 39.6738 5.91337C39.6511 5.96573 39.6183 6.01305 39.5774 6.05266C39.5365 6.09226 39.4882 6.12336 39.4354 6.14418C39.3825 6.165 39.3261 6.17514 39.2693 6.17401C39.2124 6.1753 39.1558 6.1653 39.1028 6.14456C39.0497 6.12383 39.0012 6.09277 38.9601 6.05317C38.9189 6.01357 38.8859 5.96619 38.863 5.91375C38.84 5.86131 38.8276 5.80483 38.8263 5.74755H38.8275ZM37.0458 5.74755C37.0467 5.69037 37.0589 5.63395 37.0816 5.58152C37.1043 5.5291 37.137 5.4817 37.178 5.44207C37.2189 5.40244 37.2672 5.37134 37.3202 5.35058C37.3731 5.32982 37.4296 5.31979 37.4864 5.32109C37.5431 5.31996 37.5995 5.33009 37.6524 5.35091C37.7053 5.37173 37.7535 5.40283 37.7944 5.44244C37.8354 5.48204 37.8681 5.52937 37.8909 5.58172C37.9136 5.63407 37.9259 5.69042 37.927 5.74755C37.9259 5.80467 37.9136 5.86102 37.8909 5.91337C37.8681 5.96573 37.8354 6.01305 37.7944 6.05266C37.7535 6.09226 37.7053 6.12336 37.6524 6.14418C37.5995 6.165 37.5431 6.17514 37.4864 6.17401C37.4295 6.1753 37.373 6.16528 37.32 6.14454C37.267 6.12379 37.2186 6.09271 37.1775 6.0531C37.1365 6.01348 37.1036 5.96609 37.0808 5.91366C37.058 5.86123 37.0457 5.80478 37.0446 5.74755H37.0458ZM35.2604 5.74755C35.2629 5.63206 35.3109 5.52231 35.3937 5.44236C35.4765 5.36241 35.5875 5.3188 35.7022 5.32109C35.7589 5.31996 35.8154 5.33009 35.8682 5.35091C35.9211 5.37173 35.9693 5.40283 36.0103 5.44244C36.0512 5.48204 36.0839 5.52937 36.1067 5.58172C36.1294 5.63407 36.1417 5.69042 36.1428 5.74755C36.1417 5.80467 36.1294 5.86102 36.1067 5.91337C36.0839 5.96573 36.0512 6.01305 36.0103 6.05266C35.9693 6.09226 35.9211 6.12336 35.8682 6.14418C35.8154 6.165 35.7589 6.17514 35.7022 6.17401C35.5875 6.17629 35.4765 6.13268 35.3937 6.05273C35.3109 5.97278 35.2629 5.86303 35.2604 5.74755ZM33.4774 5.74755C33.4785 5.69042 33.4908 5.63407 33.5135 5.58172C33.5363 5.52937 33.569 5.48204 33.61 5.44244C33.6509 5.40283 33.6991 5.37173 33.752 5.35091C33.8049 5.33009 33.8613 5.31996 33.918 5.32109C33.9749 5.31979 34.0314 5.32981 34.0844 5.35056C34.1374 5.37131 34.1858 5.40238 34.2269 5.442C34.2679 5.48162 34.3008 5.529 34.3236 5.58143C34.3464 5.63386 34.3587 5.69032 34.3598 5.74755C34.3573 5.86303 34.3093 5.97278 34.2265 6.05273C34.1437 6.13268 34.0327 6.17629 33.918 6.17401C33.8613 6.17514 33.8049 6.165 33.752 6.14418C33.6991 6.12336 33.6509 6.09226 33.61 6.05266C33.569 6.01305 33.5363 5.96573 33.5135 5.91337C33.4908 5.86102 33.4785 5.80467 33.4774 5.74755ZM31.6945 5.74755C31.697 5.63206 31.7449 5.52231 31.8278 5.44236C31.9106 5.36241 32.0215 5.3188 32.1363 5.32109C32.193 5.31996 32.2494 5.33009 32.3023 5.35091C32.3551 5.37173 32.4034 5.40283 32.4443 5.44244C32.4852 5.48204 32.518 5.52937 32.5407 5.58172C32.5635 5.63407 32.5758 5.69042 32.5769 5.74755C32.5758 5.80467 32.5635 5.86102 32.5407 5.91337C32.518 5.96573 32.4852 6.01305 32.4443 6.05266C32.4034 6.09226 32.3551 6.12336 32.3023 6.14418C32.2494 6.165 32.193 6.17514 32.1363 6.17401C32.0215 6.17629 31.9106 6.13268 31.8278 6.05273C31.7449 5.97278 31.697 5.86303 31.6945 5.74755ZM29.9127 5.74755C29.9136 5.69037 29.9258 5.63395 29.9485 5.58152C29.9712 5.5291 30.0039 5.4817 30.0449 5.44207C30.0858 5.40244 30.1342 5.37134 30.1871 5.35058C30.24 5.32982 30.2965 5.31979 30.3533 5.32109C30.468 5.3188 30.579 5.36241 30.6618 5.44236C30.7446 5.52231 30.7926 5.63206 30.7951 5.74755C30.7926 5.86303 30.7446 5.97278 30.6618 6.05273C30.579 6.13268 30.468 6.17629 30.3533 6.17401C30.2965 6.17514 30.2401 6.165 30.1873 6.14418C30.1344 6.12336 30.0861 6.09226 30.0452 6.05266C30.0043 6.01305 29.9715 5.96573 29.9488 5.91337C29.9261 5.86102 29.9138 5.80467 29.9127 5.74755ZM28.1285 5.74755C28.1311 5.63206 28.179 5.52231 28.2618 5.44236C28.3447 5.36241 28.4556 5.3188 28.5703 5.32109C28.6274 5.31947 28.6842 5.32924 28.7375 5.34984C28.7907 5.37044 28.8394 5.40146 28.8807 5.44112C28.922 5.48077 28.9551 5.52826 28.9781 5.58086C29.0011 5.63345 29.0135 5.6901 29.0146 5.74755C29.0135 5.80467 29.0012 5.86102 28.9784 5.91337C28.9557 5.96573 28.9229 6.01305 28.882 6.05266C28.8411 6.09226 28.7928 6.12336 28.74 6.14418C28.6871 6.165 28.6307 6.17514 28.574 6.17401C28.5168 6.17563 28.46 6.16586 28.4066 6.14528C28.3533 6.12469 28.3045 6.09369 28.2631 6.05405C28.2217 6.01442 28.1885 5.96693 28.1654 5.91433C28.1423 5.86173 28.1298 5.80504 28.1285 5.74755ZM26.3516 5.74755C26.3527 5.69042 26.365 5.63407 26.3877 5.58172C26.4105 5.52937 26.4432 5.48204 26.4841 5.44244C26.5251 5.40283 26.5733 5.37173 26.6262 5.35091C26.679 5.33009 26.7355 5.31996 26.7922 5.32109C26.8491 5.31979 26.9056 5.32981 26.9586 5.35056C27.0116 5.37131 27.06 5.40238 27.101 5.442C27.1421 5.48162 27.175 5.529 27.1978 5.58143C27.2206 5.63386 27.2329 5.69032 27.234 5.74755C27.2315 5.86303 27.1835 5.97278 27.1007 6.05273C27.0179 6.13268 26.9069 6.17629 26.7922 6.17401C26.7355 6.17514 26.679 6.165 26.6262 6.14418C26.5733 6.12336 26.5251 6.09226 26.4841 6.05266C26.4432 6.01305 26.4105 5.96573 26.3877 5.91337C26.365 5.86102 26.3527 5.80467 26.3516 5.74755ZM24.5686 5.74755C24.5712 5.63206 24.6191 5.52231 24.7019 5.44236C24.7848 5.36241 24.8957 5.3188 25.0104 5.32109C25.0672 5.31996 25.1236 5.33009 25.1765 5.35091C25.2293 5.37173 25.2776 5.40283 25.3185 5.44244C25.3594 5.48204 25.3922 5.52937 25.4149 5.58172C25.4377 5.63407 25.4499 5.69042 25.451 5.74755C25.4499 5.80467 25.4377 5.86102 25.4149 5.91337C25.3922 5.96573 25.3594 6.01305 25.3185 6.05266C25.2776 6.09226 25.2293 6.12336 25.1765 6.14418C25.1236 6.165 25.0672 6.17514 25.0104 6.17401C24.9531 6.17595 24.896 6.16643 24.8424 6.14599C24.7888 6.12556 24.7397 6.09461 24.698 6.05494C24.6564 6.01527 24.6229 5.96767 24.5997 5.91491C24.5764 5.86214 24.5638 5.80526 24.5626 5.74755H24.5686ZM22.7808 5.74755C22.7818 5.69037 22.7939 5.63395 22.8166 5.58152C22.8393 5.5291 22.8721 5.4817 22.913 5.44207C22.954 5.40244 23.0023 5.37134 23.0552 5.35058C23.1081 5.32982 23.1646 5.31979 23.2214 5.32109C23.3362 5.3188 23.4471 5.36241 23.5299 5.44236C23.6127 5.52231 23.6607 5.63206 23.6632 5.74755C23.6607 5.86303 23.6127 5.97278 23.5299 6.05273C23.4471 6.13268 23.3362 6.17629 23.2214 6.17401C23.1647 6.17514 23.1083 6.165 23.0554 6.14418C23.0025 6.12336 22.9543 6.09226 22.9134 6.05266C22.8724 6.01305 22.8397 5.96573 22.8169 5.91337C22.7942 5.86102 22.7819 5.80467 22.7808 5.74755ZM20.9966 5.74755C20.9992 5.63206 21.0471 5.52231 21.13 5.44236C21.2128 5.36241 21.3237 5.3188 21.4385 5.32109C21.4952 5.31996 21.5516 5.33009 21.6045 5.35091C21.6573 5.37173 21.7056 5.40283 21.7465 5.44244C21.7874 5.48204 21.8202 5.52937 21.8429 5.58172C21.8657 5.63407 21.878 5.69042 21.8791 5.74755C21.878 5.80467 21.8657 5.86102 21.8429 5.91337C21.8202 5.96573 21.7874 6.01305 21.7465 6.05266C21.7056 6.09226 21.6573 6.12336 21.6045 6.14418C21.5516 6.165 21.4952 6.17514 21.4385 6.17401C21.3237 6.17629 21.2128 6.13268 21.13 6.05273C21.0471 5.97278 20.9992 5.86303 20.9966 5.74755ZM19.2101 5.74755C19.2112 5.69042 19.2234 5.63407 19.2462 5.58172C19.2689 5.52937 19.3017 5.48204 19.3426 5.44244C19.3835 5.40283 19.4318 5.37173 19.4846 5.35091C19.5375 5.33009 19.5939 5.31996 19.6506 5.32109C19.7075 5.31979 19.764 5.32981 19.817 5.35056C19.87 5.37131 19.9185 5.40238 19.9595 5.442C20.0005 5.48162 20.0334 5.529 20.0562 5.58143C20.079 5.63386 20.0914 5.69032 20.0925 5.74755C20.0899 5.86303 20.042 5.97278 19.9591 6.05273C19.8763 6.13268 19.7654 6.17629 19.6506 6.17401C19.5939 6.17514 19.5375 6.165 19.4846 6.14418C19.4318 6.12336 19.3835 6.09226 19.3426 6.05266C19.3017 6.01305 19.2689 5.96573 19.2462 5.91337C19.2234 5.86102 19.2112 5.80467 19.2101 5.74755ZM17.4307 5.74755C17.4333 5.63206 17.4812 5.52231 17.564 5.44236C17.6468 5.36241 17.7578 5.3188 17.8725 5.32109C17.9293 5.31996 17.9857 5.33009 18.0385 5.35091C18.0914 5.37173 18.1397 5.40283 18.1806 5.44244C18.2215 5.48204 18.2543 5.52937 18.277 5.58172C18.2997 5.63407 18.312 5.69042 18.3131 5.74755C18.312 5.80467 18.2997 5.86102 18.277 5.91337C18.2543 5.96573 18.2215 6.01305 18.1806 6.05266C18.1397 6.09226 18.0914 6.12336 18.0385 6.14418C17.9857 6.165 17.9293 6.17514 17.8725 6.17401C17.7578 6.17629 17.6468 6.13268 17.564 6.05273C17.4812 5.97278 17.4333 5.86303 17.4307 5.74755ZM15.649 5.74755C15.6499 5.69037 15.6621 5.63395 15.6847 5.58152C15.7074 5.5291 15.7402 5.4817 15.7811 5.44207C15.8221 5.40244 15.8704 5.37134 15.9233 5.35058C15.9763 5.32982 16.0328 5.31979 16.0896 5.32109C16.2043 5.3188 16.3152 5.36241 16.3981 5.44236C16.4809 5.52231 16.5288 5.63206 16.5314 5.74755C16.5288 5.86303 16.4809 5.97278 16.3981 6.05273C16.3152 6.13268 16.2043 6.17629 16.0896 6.17401C16.0328 6.17514 15.9764 6.165 15.9235 6.14418C15.8707 6.12336 15.8224 6.09226 15.7815 6.05266C15.7406 6.01305 15.7078 5.96573 15.6851 5.91337C15.6623 5.86102 15.6501 5.80467 15.649 5.74755ZM13.8648 5.74755C13.8673 5.63206 13.9153 5.52231 13.9981 5.44236C14.0809 5.36241 14.1919 5.3188 14.3066 5.32109C14.3633 5.31996 14.4198 5.33009 14.4726 5.35091C14.5255 5.37173 14.5737 5.40283 14.6147 5.44244C14.6556 5.48204 14.6883 5.52937 14.7111 5.58172C14.7338 5.63407 14.7461 5.69042 14.7472 5.74755C14.7461 5.80467 14.7338 5.86102 14.7111 5.91337C14.6883 5.96573 14.6556 6.01305 14.6147 6.05266C14.5737 6.09226 14.5255 6.12336 14.4726 6.14418C14.4198 6.165 14.3633 6.17514 14.3066 6.17401C14.1919 6.17629 14.0809 6.13268 13.9981 6.05273C13.9153 5.97278 13.8673 5.86303 13.8648 5.74755ZM12.0818 5.74755C12.0829 5.69042 12.0952 5.63407 12.1179 5.58172C12.1407 5.52937 12.1734 5.48204 12.2143 5.44244C12.2553 5.40283 12.3035 5.37173 12.3564 5.35091C12.4092 5.33009 12.4657 5.31996 12.5224 5.32109C12.5793 5.31979 12.6358 5.32981 12.6888 5.35056C12.7418 5.37131 12.7902 5.40238 12.8313 5.442C12.8723 5.48162 12.9052 5.529 12.928 5.58143C12.9508 5.63386 12.9631 5.69032 12.9642 5.74755C12.9617 5.86303 12.9137 5.97278 12.8309 6.05273C12.7481 6.13268 12.6371 6.17629 12.5224 6.17401C12.4657 6.17514 12.4092 6.165 12.3564 6.14418C12.3035 6.12336 12.2553 6.09226 12.2143 6.05266C12.1734 6.01305 12.1407 5.96573 12.1179 5.91337C12.0952 5.86102 12.0829 5.80467 12.0818 5.74755ZM10.2988 5.74755C10.3004 5.63207 10.3475 5.52194 10.4296 5.44131C10.5117 5.36068 10.6223 5.31613 10.737 5.31743C10.7944 5.31581 10.8515 5.3257 10.905 5.34653C10.9585 5.36736 11.0074 5.39871 11.0487 5.43874C11.0901 5.47878 11.1231 5.52671 11.1458 5.57973C11.1686 5.63275 11.1806 5.68979 11.1813 5.74755C11.1797 5.80468 11.1669 5.86094 11.1438 5.91311C11.1206 5.96528 11.0874 6.01235 11.0462 6.05161C11.0049 6.09088 10.9564 6.12157 10.9033 6.14195C10.8503 6.16232 10.7938 6.17197 10.737 6.17035C10.6235 6.17168 10.514 6.12813 10.4321 6.04907C10.3502 5.97001 10.3023 5.86175 10.2988 5.74755ZM8.51709 5.74755C8.51803 5.69037 8.53019 5.63395 8.55288 5.58152C8.57557 5.5291 8.60832 5.4817 8.64927 5.44207C8.69022 5.40244 8.73855 5.37134 8.79148 5.35058C8.84441 5.32982 8.90089 5.31979 8.95769 5.32109C9.015 5.31914 9.07212 5.32866 9.12575 5.3491C9.17938 5.36954 9.22844 5.40049 9.2701 5.44016C9.31176 5.47982 9.34518 5.52742 9.36843 5.58018C9.39168 5.63295 9.4043 5.68984 9.40555 5.74755C9.403 5.86303 9.35506 5.97278 9.27224 6.05273C9.18941 6.13268 9.07847 6.17629 8.96374 6.17401C8.90649 6.17595 8.84942 6.16643 8.79586 6.14597C8.7423 6.12552 8.69332 6.09455 8.65175 6.05487C8.61019 6.01518 8.57688 5.96758 8.55376 5.91482C8.53065 5.86206 8.51818 5.8052 8.51709 5.74755ZM6.73291 5.74755C6.73545 5.63206 6.78339 5.52231 6.86622 5.44236C6.94904 5.36241 7.05999 5.3188 7.17472 5.32109C7.23147 5.31996 7.28788 5.33009 7.34074 5.35091C7.3936 5.37173 7.44187 5.40283 7.48278 5.44244C7.5237 5.48204 7.55646 5.52937 7.5792 5.58172C7.60194 5.63407 7.61421 5.69042 7.61532 5.74755C7.61421 5.80467 7.60194 5.86102 7.5792 5.91337C7.55646 5.96573 7.5237 6.01305 7.48278 6.05266C7.44187 6.09226 7.3936 6.12336 7.34074 6.14418C7.28788 6.165 7.23147 6.17514 7.17472 6.17401C7.05999 6.17629 6.94904 6.13268 6.86622 6.05273C6.78339 5.97278 6.73545 5.86303 6.73291 5.74755Z" fill="#727897"/>
<path d="M54.873 15.1588C54.8756 15.0434 54.9235 14.9336 55.0063 14.8537C55.0892 14.7737 55.2001 14.7301 55.3148 14.7324C55.3716 14.7313 55.428 14.7414 55.4809 14.7622C55.5337 14.783 55.582 14.8141 55.6229 14.8537C55.6638 14.8933 55.6966 14.9407 55.7193 14.993C55.7421 15.0454 55.7543 15.1017 55.7554 15.1588C55.7545 15.216 55.7423 15.2724 55.7196 15.3249C55.697 15.3773 55.6642 15.4247 55.6232 15.4643C55.5823 15.5039 55.534 15.535 55.481 15.5558C55.4281 15.5766 55.3716 15.5866 55.3148 15.5853C55.2001 15.5876 55.0892 15.544 55.0063 15.464C54.9235 15.3841 54.8756 15.2743 54.873 15.1588ZM53.0913 15.1588C53.0924 15.1017 53.1046 15.0454 53.1274 14.993C53.1501 14.9407 53.1829 14.8933 53.2238 14.8537C53.2647 14.8141 53.313 14.783 53.3658 14.7622C53.4187 14.7414 53.4751 14.7313 53.5319 14.7324C53.6466 14.7301 53.7575 14.7737 53.8404 14.8537C53.9232 14.9336 53.9711 15.0434 53.9737 15.1588C53.9711 15.2743 53.9232 15.3841 53.8404 15.464C53.7575 15.544 53.6466 15.5876 53.5319 15.5853C53.4751 15.5864 53.4187 15.5763 53.3658 15.5555C53.313 15.5346 53.2647 15.5035 53.2238 15.4639C53.1829 15.4243 53.1501 15.377 53.1274 15.3247C53.1046 15.2723 53.0924 15.216 53.0913 15.1588ZM51.3071 15.1588C51.3096 15.0434 51.3576 14.9336 51.4404 14.8537C51.5232 14.7737 51.6342 14.7301 51.7489 14.7324C51.8057 14.7313 51.8621 14.7414 51.9149 14.7622C51.9678 14.783 52.016 14.8141 52.057 14.8537C52.0979 14.8933 52.1306 14.9407 52.1534 14.993C52.1761 15.0454 52.1884 15.1017 52.1895 15.1588C52.1886 15.216 52.1764 15.2724 52.1537 15.3249C52.131 15.3773 52.0983 15.4247 52.0573 15.4643C52.0164 15.5039 51.968 15.535 51.9151 15.5558C51.8622 15.5766 51.8057 15.5866 51.7489 15.5853C51.6342 15.5876 51.5232 15.544 51.4404 15.464C51.3576 15.3841 51.3096 15.2743 51.3071 15.1588ZM49.5253 15.1588C49.5264 15.1017 49.5387 15.0454 49.5615 14.993C49.5842 14.9407 49.617 14.8933 49.6579 14.8537C49.6988 14.8141 49.7471 14.783 49.7999 14.7622C49.8528 14.7414 49.9092 14.7313 49.9659 14.7324C50.0807 14.7301 50.1916 14.7737 50.2744 14.8537C50.3573 14.9336 50.4052 15.0434 50.4077 15.1588C50.4052 15.2743 50.3573 15.3841 50.2744 15.464C50.1916 15.544 50.0807 15.5876 49.9659 15.5853C49.9092 15.5864 49.8528 15.5763 49.7999 15.5555C49.7471 15.5346 49.6988 15.5035 49.6579 15.4639C49.617 15.4243 49.5842 15.377 49.5615 15.3247C49.5387 15.2723 49.5264 15.216 49.5253 15.1588ZM47.7412 15.1588C47.744 15.0432 47.7922 14.9335 47.8752 14.8536C47.9583 14.7737 48.0693 14.7301 48.1842 14.7324C48.2986 14.7304 48.4091 14.7742 48.4915 14.8542C48.5738 14.9341 48.6213 15.0437 48.6236 15.1588C48.6226 15.2159 48.6105 15.2722 48.5879 15.3246C48.5653 15.3769 48.5326 15.4243 48.4918 15.4639C48.451 15.5035 48.4028 15.5346 48.35 15.5554C48.2972 15.5763 48.2409 15.5864 48.1842 15.5853C48.1273 15.5866 48.0707 15.5766 48.0176 15.5558C47.9645 15.5351 47.916 15.5041 47.8749 15.4645C47.8338 15.4249 47.8008 15.3775 47.7778 15.325C47.7549 15.2726 47.7424 15.2161 47.7412 15.1588ZM45.9594 15.1588C45.9605 15.1017 45.9728 15.0454 45.9955 14.993C46.0183 14.9407 46.051 14.8933 46.0919 14.8537C46.1329 14.8141 46.1811 14.783 46.234 14.7622C46.2868 14.7414 46.3433 14.7313 46.4 14.7324C46.4568 14.7313 46.5132 14.7414 46.566 14.7622C46.6189 14.783 46.6671 14.8141 46.7081 14.8537C46.749 14.8933 46.7817 14.9407 46.8045 14.993C46.8272 15.0454 46.8395 15.1017 46.8406 15.1588C46.8395 15.216 46.8272 15.2723 46.8045 15.3247C46.7817 15.377 46.749 15.4243 46.7081 15.4639C46.6671 15.5035 46.6189 15.5346 46.566 15.5555C46.5132 15.5763 46.4568 15.5864 46.4 15.5853C46.2856 15.5873 46.1751 15.5435 46.0927 15.4635C46.0103 15.3836 45.9628 15.274 45.9606 15.1588H45.9594ZM44.1752 15.1588C44.1778 15.0434 44.2257 14.9336 44.3085 14.8537C44.3914 14.7737 44.5023 14.7301 44.617 14.7324C44.6738 14.7313 44.7302 14.7414 44.7831 14.7622C44.8359 14.783 44.8842 14.8141 44.9251 14.8537C44.966 14.8933 44.9988 14.9407 45.0215 14.993C45.0443 15.0454 45.0565 15.1017 45.0576 15.1588C45.0567 15.216 45.0445 15.2724 45.0218 15.3249C44.9991 15.3773 44.9664 15.4247 44.9254 15.4643C44.8845 15.5039 44.8362 15.535 44.7832 15.5558C44.7303 15.5766 44.6738 15.5866 44.617 15.5853C44.5602 15.5866 44.5036 15.5766 44.4506 15.5558C44.3976 15.5351 44.3492 15.504 44.3082 15.4644C44.2671 15.4248 44.2343 15.3774 44.2114 15.325C44.1886 15.2725 44.1763 15.2161 44.1752 15.1588ZM42.3923 15.1588C42.3948 15.0434 42.4427 14.9336 42.5256 14.8537C42.6084 14.7737 42.7193 14.7301 42.8341 14.7324C42.8908 14.7313 42.9472 14.7414 43.0001 14.7622C43.053 14.783 43.1012 14.8141 43.1421 14.8537C43.183 14.8933 43.2158 14.9407 43.2386 14.993C43.2613 15.0454 43.2736 15.1017 43.2747 15.1588C43.2736 15.216 43.2613 15.2723 43.2386 15.3247C43.2158 15.377 43.183 15.4243 43.1421 15.4639C43.1012 15.5035 43.053 15.5346 43.0001 15.5555C42.9472 15.5763 42.8908 15.5864 42.8341 15.5853C42.7193 15.5876 42.6084 15.544 42.5256 15.464C42.4427 15.3841 42.3948 15.2743 42.3923 15.1588ZM40.6093 15.1588C40.6104 15.1017 40.6227 15.0454 40.6454 14.993C40.6681 14.9407 40.7009 14.8933 40.7418 14.8537C40.7827 14.8141 40.831 14.783 40.8839 14.7622C40.9367 14.7414 40.9931 14.7313 41.0499 14.7324C41.1646 14.7301 41.2756 14.7737 41.3584 14.8537C41.4412 14.9336 41.4891 15.0434 41.4917 15.1588C41.4906 15.2161 41.4783 15.2725 41.4555 15.325C41.4327 15.3774 41.3998 15.4248 41.3587 15.4644C41.3177 15.504 41.2693 15.5351 41.2163 15.5558C41.1633 15.5766 41.1067 15.5866 41.0499 15.5853C40.9931 15.5864 40.9367 15.5763 40.8839 15.5555C40.831 15.5346 40.7827 15.5035 40.7418 15.4639C40.7009 15.4243 40.6681 15.377 40.6454 15.3247C40.6227 15.2723 40.6104 15.216 40.6093 15.1588ZM38.8263 15.1588C38.8289 15.0434 38.8768 14.9336 38.9596 14.8537C39.0425 14.7737 39.1534 14.7301 39.2681 14.7324C39.3249 14.7313 39.3813 14.7414 39.4342 14.7622C39.487 14.783 39.5353 14.8141 39.5762 14.8537C39.6171 14.8933 39.6499 14.9407 39.6726 14.993C39.6954 15.0454 39.7076 15.1017 39.7087 15.1588C39.7076 15.216 39.6954 15.2723 39.6726 15.3247C39.6499 15.377 39.6171 15.4243 39.5762 15.4639C39.5353 15.5035 39.487 15.5346 39.4342 15.5555C39.3813 15.5763 39.3249 15.5864 39.2681 15.5853C39.1534 15.5876 39.0425 15.544 38.9596 15.464C38.8768 15.3841 38.8289 15.2743 38.8263 15.1588ZM37.0446 15.1588C37.0457 15.1017 37.0579 15.0454 37.0807 14.993C37.1034 14.9407 37.1362 14.8933 37.1771 14.8537C37.218 14.8141 37.2663 14.783 37.3191 14.7622C37.372 14.7414 37.4284 14.7313 37.4852 14.7324C37.5419 14.7313 37.5983 14.7414 37.6512 14.7622C37.704 14.783 37.7523 14.8141 37.7932 14.8537C37.8341 14.8933 37.8669 14.9407 37.8896 14.993C37.9124 15.0454 37.9247 15.1017 37.9258 15.1588C37.9247 15.216 37.9124 15.2723 37.8896 15.3247C37.8669 15.377 37.8341 15.4243 37.7932 15.4639C37.7523 15.5035 37.704 15.5346 37.6512 15.5555C37.5983 15.5763 37.5419 15.5864 37.4852 15.5853C37.4284 15.5866 37.3719 15.5766 37.319 15.5558C37.266 15.535 37.2177 15.5039 37.1767 15.4643C37.1358 15.4247 37.103 15.3773 37.0804 15.3249C37.0577 15.2724 37.0455 15.216 37.0446 15.1588ZM35.2604 15.1588C35.2629 15.0434 35.3109 14.9336 35.3937 14.8537C35.4765 14.7737 35.5875 14.7301 35.7022 14.7324C35.7589 14.7313 35.8154 14.7414 35.8682 14.7622C35.9211 14.783 35.9693 14.8141 36.0103 14.8537C36.0512 14.8933 36.0839 14.9407 36.1067 14.993C36.1294 15.0454 36.1417 15.1017 36.1428 15.1588C36.1417 15.216 36.1294 15.2723 36.1067 15.3247C36.0839 15.377 36.0512 15.4243 36.0103 15.4639C35.9693 15.5035 35.9211 15.5346 35.8682 15.5555C35.8154 15.5763 35.7589 15.5864 35.7022 15.5853C35.5875 15.5876 35.4765 15.544 35.3937 15.464C35.3109 15.3841 35.2629 15.2743 35.2604 15.1588ZM33.4774 15.1588C33.4785 15.1017 33.4908 15.0454 33.5135 14.993C33.5363 14.9407 33.569 14.8933 33.61 14.8537C33.6509 14.8141 33.6991 14.783 33.752 14.7622C33.8049 14.7414 33.8613 14.7313 33.918 14.7324C34.0327 14.7301 34.1437 14.7737 34.2265 14.8537C34.3093 14.9336 34.3573 15.0434 34.3598 15.1588C34.3587 15.2161 34.3464 15.2725 34.3236 15.325C34.3008 15.3774 34.2679 15.4248 34.2269 15.4644C34.1858 15.504 34.1374 15.5351 34.0844 15.5558C34.0314 15.5766 33.9749 15.5866 33.918 15.5853C33.8613 15.5864 33.8049 15.5763 33.752 15.5555C33.6991 15.5346 33.6509 15.5035 33.61 15.4639C33.569 15.4243 33.5363 15.377 33.5135 15.3247C33.4908 15.2723 33.4785 15.216 33.4774 15.1588ZM31.6945 15.1588C31.697 15.0434 31.7449 14.9336 31.8278 14.8537C31.9106 14.7737 32.0215 14.7301 32.1363 14.7324C32.193 14.7313 32.2494 14.7414 32.3023 14.7622C32.3551 14.783 32.4034 14.8141 32.4443 14.8537C32.4852 14.8933 32.518 14.9407 32.5407 14.993C32.5635 15.0454 32.5758 15.1017 32.5769 15.1588C32.5758 15.216 32.5635 15.2723 32.5407 15.3247C32.518 15.377 32.4852 15.4243 32.4443 15.4639C32.4034 15.5035 32.3551 15.5346 32.3023 15.5555C32.2494 15.5763 32.193 15.5864 32.1363 15.5853C32.0215 15.5876 31.9106 15.544 31.8278 15.464C31.7449 15.3841 31.697 15.2743 31.6945 15.1588ZM29.9127 15.1588C29.9138 15.1017 29.9261 15.0454 29.9488 14.993C29.9715 14.9407 30.0043 14.8933 30.0452 14.8537C30.0861 14.8141 30.1344 14.783 30.1873 14.7622C30.2401 14.7414 30.2965 14.7313 30.3533 14.7324C30.468 14.7301 30.579 14.7737 30.6618 14.8537C30.7446 14.9336 30.7926 15.0434 30.7951 15.1588C30.7926 15.2743 30.7446 15.3841 30.6618 15.464C30.579 15.544 30.468 15.5876 30.3533 15.5853C30.2965 15.5866 30.24 15.5766 30.1871 15.5558C30.1342 15.535 30.0858 15.5039 30.0449 15.4643C30.0039 15.4247 29.9712 15.3773 29.9485 15.3249C29.9258 15.2724 29.9136 15.216 29.9127 15.1588ZM28.1285 15.1588C28.1311 15.0434 28.179 14.9336 28.2618 14.8537C28.3447 14.7737 28.4556 14.7301 28.5703 14.7324C28.6271 14.7313 28.6835 14.7414 28.7364 14.7622C28.7892 14.783 28.8375 14.8141 28.8784 14.8537C28.9193 14.8933 28.9521 14.9407 28.9748 14.993C28.9976 15.0454 29.0098 15.1017 29.0109 15.1588C29.0098 15.216 28.9976 15.2723 28.9748 15.3247C28.9521 15.377 28.9193 15.4243 28.8784 15.4639C28.8375 15.5035 28.7892 15.5346 28.7364 15.5555C28.6835 15.5763 28.6271 15.5864 28.5703 15.5853C28.4556 15.5876 28.3447 15.544 28.2618 15.464C28.179 15.3841 28.1311 15.2743 28.1285 15.1588ZM26.3456 15.1588C26.3467 15.1017 26.3589 15.0454 26.3817 14.993C26.4044 14.9407 26.4372 14.8933 26.4781 14.8537C26.519 14.8141 26.5673 14.783 26.6201 14.7622C26.673 14.7414 26.7294 14.7313 26.7861 14.7324C26.9009 14.7301 27.0118 14.7737 27.0946 14.8537C27.1775 14.9336 27.2254 15.0434 27.228 15.1588C27.2269 15.2161 27.2145 15.2725 27.1917 15.325C27.1689 15.3774 27.136 15.4248 27.095 15.4644C27.054 15.504 27.0055 15.5351 26.9525 15.5558C26.8995 15.5766 26.843 15.5866 26.7861 15.5853C26.6726 15.586 26.5633 15.5416 26.482 15.4618C26.4007 15.382 26.3538 15.2731 26.3516 15.1588H26.3456ZM24.5626 15.1588C24.5651 15.0434 24.6131 14.9336 24.6959 14.8537C24.7787 14.7737 24.8897 14.7301 25.0044 14.7324C25.0611 14.7313 25.1176 14.7414 25.1704 14.7622C25.2233 14.783 25.2715 14.8141 25.3125 14.8537C25.3534 14.8933 25.3861 14.9407 25.4089 14.993C25.4316 15.0454 25.4439 15.1017 25.445 15.1588C25.4439 15.216 25.4316 15.2723 25.4089 15.3247C25.3861 15.377 25.3534 15.4243 25.3125 15.4639C25.2715 15.5035 25.2233 15.5346 25.1704 15.5555C25.1176 15.5763 25.0611 15.5864 25.0044 15.5853C24.8897 15.5876 24.7787 15.544 24.6959 15.464C24.6131 15.3841 24.5651 15.2743 24.5626 15.1588ZM22.7808 15.1588C22.7819 15.1017 22.7942 15.0454 22.8169 14.993C22.8397 14.9407 22.8724 14.8933 22.9134 14.8537C22.9543 14.8141 23.0025 14.783 23.0554 14.7622C23.1083 14.7414 23.1647 14.7313 23.2214 14.7324C23.3362 14.7301 23.4471 14.7737 23.5299 14.8537C23.6127 14.9336 23.6607 15.0434 23.6632 15.1588C23.6607 15.2743 23.6127 15.3841 23.5299 15.464C23.4471 15.544 23.3362 15.5876 23.2214 15.5853C23.1646 15.5866 23.1081 15.5766 23.0552 15.5558C23.0023 15.535 22.954 15.5039 22.913 15.4643C22.8721 15.4247 22.8393 15.3773 22.8166 15.3249C22.7939 15.2724 22.7818 15.216 22.7808 15.1588ZM20.9966 15.1588C20.9992 15.0434 21.0471 14.9336 21.13 14.8537C21.2128 14.7737 21.3237 14.7301 21.4385 14.7324C21.4952 14.7313 21.5516 14.7414 21.6045 14.7622C21.6573 14.783 21.7056 14.8141 21.7465 14.8537C21.7874 14.8933 21.8202 14.9407 21.8429 14.993C21.8657 15.0454 21.878 15.1017 21.8791 15.1588C21.878 15.216 21.8657 15.2723 21.8429 15.3247C21.8202 15.377 21.7874 15.4243 21.7465 15.4639C21.7056 15.5035 21.6573 15.5346 21.6045 15.5555C21.5516 15.5763 21.4952 15.5864 21.4385 15.5853C21.3237 15.5876 21.2128 15.544 21.13 15.464C21.0471 15.3841 20.9992 15.2743 20.9966 15.1588ZM19.2137 15.1588C19.2148 15.1017 19.2271 15.0454 19.2498 14.993C19.2725 14.9407 19.3053 14.8933 19.3462 14.8537C19.3871 14.8141 19.4354 14.783 19.4883 14.7622C19.5411 14.7414 19.5975 14.7313 19.6543 14.7324C19.769 14.7301 19.88 14.7737 19.9628 14.8537C20.0456 14.9336 20.0935 15.0434 20.0961 15.1588C20.095 15.2161 20.0827 15.2725 20.0599 15.325C20.037 15.3774 20.0042 15.4248 19.9631 15.4644C19.9221 15.504 19.8737 15.5351 19.8207 15.5558C19.7677 15.5766 19.7111 15.5866 19.6543 15.5853C19.5972 15.5869 19.5404 15.5771 19.4871 15.5565C19.4339 15.5359 19.3852 15.5049 19.3439 15.4653C19.3026 15.4256 19.2695 15.3781 19.2465 15.3255C19.2235 15.2729 19.2111 15.2163 19.2101 15.1588H19.2137ZM17.4307 15.1588C17.4333 15.0434 17.4812 14.9336 17.564 14.8537C17.6468 14.7737 17.7578 14.7301 17.8725 14.7324C17.9293 14.7313 17.9857 14.7414 18.0385 14.7622C18.0914 14.783 18.1397 14.8141 18.1806 14.8537C18.2215 14.8933 18.2543 14.9407 18.277 14.993C18.2997 15.0454 18.312 15.1017 18.3131 15.1588C18.312 15.216 18.2997 15.2723 18.277 15.3247C18.2543 15.377 18.2215 15.4243 18.1806 15.4639C18.1397 15.5035 18.0914 15.5346 18.0385 15.5555C17.9857 15.5763 17.9293 15.5864 17.8725 15.5853C17.7578 15.5876 17.6468 15.544 17.564 15.464C17.4812 15.3841 17.4333 15.2743 17.4307 15.1588ZM15.649 15.1588C15.6501 15.1017 15.6623 15.0454 15.6851 14.993C15.7078 14.9407 15.7406 14.8933 15.7815 14.8537C15.8224 14.8141 15.8707 14.783 15.9235 14.7622C15.9764 14.7414 16.0328 14.7313 16.0896 14.7324C16.2043 14.7301 16.3152 14.7737 16.3981 14.8537C16.4809 14.9336 16.5288 15.0434 16.5314 15.1588C16.5288 15.2743 16.4809 15.3841 16.3981 15.464C16.3152 15.544 16.2043 15.5876 16.0896 15.5853C16.0328 15.5866 15.9763 15.5766 15.9233 15.5558C15.8704 15.535 15.8221 15.5039 15.7811 15.4643C15.7402 15.4247 15.7074 15.3773 15.6847 15.3249C15.6621 15.2724 15.6499 15.216 15.649 15.1588ZM13.8648 15.1588C13.8673 15.0434 13.9153 14.9336 13.9981 14.8537C14.0809 14.7737 14.1919 14.7301 14.3066 14.7324C14.3633 14.7313 14.4198 14.7414 14.4726 14.7622C14.5255 14.783 14.5737 14.8141 14.6147 14.8537C14.6556 14.8933 14.6883 14.9407 14.7111 14.993C14.7338 15.0454 14.7461 15.1017 14.7472 15.1588C14.7461 15.216 14.7338 15.2723 14.7111 15.3247C14.6883 15.377 14.6556 15.4243 14.6147 15.4639C14.5737 15.5035 14.5255 15.5346 14.4726 15.5555C14.4198 15.5763 14.3633 15.5864 14.3066 15.5853C14.1919 15.5876 14.0809 15.544 13.9981 15.464C13.9153 15.3841 13.8673 15.2743 13.8648 15.1588ZM12.0818 15.1588C12.0829 15.1017 12.0952 15.0454 12.1179 14.993C12.1407 14.9407 12.1734 14.8933 12.2143 14.8537C12.2553 14.8141 12.3035 14.783 12.3564 14.7622C12.4092 14.7414 12.4657 14.7313 12.5224 14.7324C12.6371 14.7301 12.7481 14.7737 12.8309 14.8537C12.9137 14.9336 12.9617 15.0434 12.9642 15.1588C12.9631 15.2161 12.9508 15.2725 12.928 15.325C12.9052 15.3774 12.8723 15.4248 12.8313 15.4644C12.7902 15.504 12.7418 15.5351 12.6888 15.5558C12.6358 15.5766 12.5793 15.5866 12.5224 15.5853C12.4657 15.5864 12.4092 15.5763 12.3564 15.5555C12.3035 15.5346 12.2553 15.5035 12.2143 15.4639C12.1734 15.4243 12.1407 15.377 12.1179 15.3247C12.0952 15.2723 12.0829 15.216 12.0818 15.1588ZM10.2988 15.1588C10.3014 15.0434 10.3493 14.9336 10.4322 14.8537C10.515 14.7737 10.6259 14.7301 10.7407 14.7324C10.7974 14.7313 10.8538 14.7414 10.9067 14.7622C10.9595 14.783 11.0078 14.8141 11.0487 14.8537C11.0896 14.8933 11.1224 14.9407 11.1451 14.993C11.1679 15.0454 11.1801 15.1017 11.1813 15.1588C11.1801 15.216 11.1679 15.2723 11.1451 15.3247C11.1224 15.377 11.0896 15.4243 11.0487 15.4639C11.0078 15.5035 10.9595 15.5346 10.9067 15.5555C10.8538 15.5763 10.7974 15.5864 10.7407 15.5853C10.6259 15.5876 10.515 15.544 10.4322 15.464C10.3493 15.3841 10.3014 15.2743 10.2988 15.1588ZM8.51709 15.1588C8.51819 15.1017 8.53046 15.0454 8.5532 14.993C8.57594 14.9407 8.60871 14.8933 8.64962 14.8537C8.69054 14.8141 8.7388 14.783 8.79166 14.7622C8.84452 14.7414 8.90094 14.7313 8.95769 14.7324C9.07241 14.7301 9.18336 14.7737 9.26619 14.8537C9.34901 14.9336 9.39695 15.0434 9.39949 15.1588C9.39695 15.2743 9.34901 15.3841 9.26619 15.464C9.18336 15.544 9.07241 15.5876 8.95769 15.5853C8.90089 15.5866 8.84441 15.5766 8.79148 15.5558C8.73855 15.535 8.69022 15.5039 8.64927 15.4643C8.60832 15.4247 8.57557 15.3773 8.55288 15.3249C8.53019 15.2724 8.51803 15.216 8.51709 15.1588ZM6.73291 15.1588C6.73545 15.0434 6.78339 14.9336 6.86622 14.8537C6.94904 14.7737 7.05999 14.7301 7.17472 14.7324C7.23147 14.7313 7.28788 14.7414 7.34074 14.7622C7.3936 14.783 7.44187 14.8141 7.48278 14.8537C7.5237 14.8933 7.55646 14.9407 7.5792 14.993C7.60194 15.0454 7.61421 15.1017 7.61532 15.1588C7.61421 15.216 7.60194 15.2723 7.5792 15.3247C7.55646 15.377 7.5237 15.4243 7.48278 15.4639C7.44187 15.5035 7.3936 15.5346 7.34074 15.5555C7.28788 15.5763 7.23147 15.5864 7.17472 15.5853C7.05999 15.5876 6.94904 15.544 6.86622 15.464C6.78339 15.3841 6.73545 15.2743 6.73291 15.1588Z" fill="#727897"/>
<path d="M31.8492 7.24377L29.6704 13.7016H31.2294L31.4909 12.8486H33.5051L33.7568 13.7016H35.3086L33.2436 7.24377H31.8492ZM31.9969 11.3865L32.5246 9.82445L33.0306 11.3865H31.9969Z" fill="#727897"/>
<path d="M50.1972 8.05526C49.9552 7.80927 49.67 7.61056 49.356 7.46919C49.0336 7.32031 48.683 7.24341 48.3283 7.24378H46.7983V13.7016H48.3719V12.6513C48.7193 12.648 49.0623 12.5721 49.379 12.4283C50.0085 12.1443 50.5061 11.6285 50.7698 10.9869C51.0418 10.321 51.0418 9.57403 50.7698 8.90818C50.635 8.58956 50.4406 8.3 50.1972 8.05526ZM49.4044 10.4117C49.348 10.5533 49.2659 10.683 49.1623 10.7943C49.0637 10.9044 48.9449 10.9941 48.8125 11.0587C48.6752 11.1222 48.5275 11.1598 48.3767 11.1696V8.72176C48.5274 8.73169 48.675 8.76884 48.8125 8.83142C48.9486 8.89644 49.0717 8.98606 49.1756 9.09582C49.2796 9.20681 49.3618 9.33663 49.4177 9.47841C49.4786 9.62628 49.5091 9.78503 49.5073 9.94508C49.5047 10.1059 49.4701 10.2646 49.4056 10.4117H49.4044Z" fill="#727897"/>
<path d="M11.8046 7.24377L10.4356 11.2793L9.03273 7.24377H7.51606L7.10693 13.7016H8.5885L8.76281 10.9637L9.70331 13.7016H11.1764L12.0661 11.0697L12.2222 13.7016H13.6953L13.3201 7.24377H11.8046Z" fill="#727897"/>
<path d="M27.7944 11.2391C27.7882 11.3707 27.7544 11.4994 27.6951 11.6168C27.6412 11.7317 27.5669 11.8357 27.476 11.9239C27.387 12.0115 27.2811 12.0799 27.1649 12.1249C27.0495 12.1716 26.9262 12.1955 26.8018 12.1956C26.6745 12.1968 26.5484 12.1716 26.4312 12.1218C26.314 12.0719 26.2082 11.9983 26.1203 11.9056C25.9437 11.7228 25.8462 11.477 25.8492 11.222L24.3761 11.2038C24.3688 11.5264 24.4265 11.8472 24.5456 12.1468C24.6657 12.4431 24.8421 12.713 25.0648 12.9413C25.2891 13.1734 25.5553 13.3603 25.8492 13.492C26.1422 13.6258 26.4595 13.6971 26.7812 13.7016H26.8079C27.1305 13.6996 27.4493 13.6312 27.7447 13.5005C28.0312 13.3775 28.2913 13.2 28.5109 12.9778C28.7344 12.7545 28.9153 12.4918 29.0447 12.2029C29.18 11.9028 29.2506 11.5772 29.2517 11.2476V7.12195H27.7992L27.7944 11.2391Z" fill="#727897"/>
<path d="M22.5898 11.0027L20.5103 7.24377H18.9585V13.7016H20.411V9.92315L22.4712 13.7016H24.0423V7.24377H22.5898V11.0027Z" fill="#727897"/>
<path d="M13.9956 13.7016H18.1111V12.2394H15.5692V11.1428H17.6269V9.6807H15.5692V8.70594H18.1111V7.23892L13.9956 7.24745V13.7016Z" fill="#727897"/>
<path d="M55.5689 10.5726C55.3522 10.233 55.0417 9.9645 54.6756 9.8001C54.5715 9.7538 54.4686 9.71237 54.3669 9.67826C54.2652 9.64414 54.166 9.61002 54.0667 9.58078C53.9675 9.55154 53.8525 9.51011 53.7532 9.47112C53.6603 9.43753 53.57 9.39679 53.4833 9.34927C53.3973 9.2925 53.3352 9.2057 53.309 9.10558C53.2795 9.00807 53.2886 8.90285 53.3344 8.81194C53.3641 8.74726 53.4132 8.69357 53.4748 8.65841C53.5273 8.62802 53.5847 8.607 53.6443 8.59627C53.6931 8.58772 53.7431 8.58772 53.7919 8.59627C53.8193 8.60323 53.8473 8.60771 53.8755 8.60968C53.9532 8.62521 54.028 8.65318 54.097 8.69253C54.1396 8.72006 54.174 8.75877 54.1964 8.80451C54.2188 8.85024 54.2283 8.90126 54.2241 8.95206H55.6887C55.6821 8.74791 55.6471 8.54571 55.5846 8.35136C55.5156 8.15708 55.4127 7.97677 55.2808 7.8189C55.1491 7.65891 54.9926 7.52147 54.8172 7.41194C54.6324 7.2975 54.4299 7.21513 54.218 7.16825C53.999 7.11062 53.7719 7.09044 53.5462 7.10854C53.1199 7.13845 52.7168 7.3153 52.4048 7.60933C52.2466 7.75804 52.114 7.93222 52.0126 8.12473C51.9039 8.33633 51.8372 8.5673 51.8165 8.80463C51.7749 9.27196 51.904 9.73854 52.1797 10.1169C52.3185 10.3111 52.4931 10.4766 52.6941 10.6043C52.8425 10.6992 53.0003 10.7784 53.1649 10.8407C53.3211 10.8991 53.4724 10.9515 53.6176 10.9991C53.6987 11.0283 53.7762 11.0539 53.8488 11.077C53.9183 11.0999 53.9866 11.1263 54.0534 11.1562C54.1255 11.1911 54.1916 11.2371 54.2495 11.2927C54.2952 11.3375 54.3336 11.3893 54.3633 11.4462C54.3868 11.4929 54.4028 11.5431 54.4105 11.5949C54.4157 11.6328 54.4185 11.6711 54.419 11.7094C54.4185 11.7473 54.4157 11.7852 54.4105 11.8227C54.4033 11.8735 54.3873 11.9225 54.3633 11.9677C54.3324 12.0238 54.2941 12.0754 54.2495 12.1212C54.1936 12.1779 54.1269 12.2227 54.0534 12.2528C53.9417 12.3048 53.8193 12.329 53.6963 12.3235C53.5746 12.3179 53.4568 12.2782 53.3562 12.209C53.2785 12.1616 53.2104 12.1001 53.1553 12.0274C53.0805 11.9105 53.0414 11.7741 53.0427 11.6351H51.5708C51.5699 12.0016 51.6598 12.3626 51.8323 12.6854C52.0058 13.006 52.2579 13.2765 52.5646 13.4713C52.7404 13.5853 52.9327 13.6712 53.1347 13.7259C53.3318 13.7806 53.5354 13.8081 53.7399 13.8076C53.8981 13.807 54.0558 13.7907 54.2108 13.7588C54.3695 13.7253 54.5239 13.6734 54.6707 13.6041C55.0381 13.4406 55.3499 13.1725 55.5676 12.8328C55.7796 12.4954 55.8921 12.1044 55.8921 11.7051C55.8921 11.3059 55.7796 10.9149 55.5676 10.5775L55.5689 10.5726Z" fill="#727897"/>
<path d="M39.0056 12.1127L38.9487 12.1273C38.807 12.1662 38.661 12.1867 38.5141 12.1882C38.4331 12.188 38.3521 12.1815 38.2721 12.1687C38.1786 12.1567 38.0862 12.1367 37.9961 12.109C37.944 12.0932 37.8908 12.0749 37.8387 12.0542C37.6197 11.9697 37.4203 11.8407 37.2529 11.6753C37.0908 11.5144 36.9602 11.3243 36.868 11.1148C36.778 10.9073 36.7323 10.6832 36.7336 10.4568C36.7328 10.2293 36.7785 10.0041 36.868 9.79521C36.9594 9.58385 37.09 9.39197 37.2529 9.22985C37.42 9.06014 37.6192 8.92589 37.8387 8.83507C37.8932 8.81435 37.9501 8.79486 38.0058 8.77902C38.1674 8.72928 38.3354 8.70382 38.5045 8.70348H38.5178C38.5432 8.70348 38.5686 8.70348 38.594 8.70348H38.6788H38.7211C38.8709 8.72209 39.0177 8.75976 39.1581 8.81557L39.1787 8.8241C39.2126 8.83629 39.2428 8.85335 39.2755 8.86797L39.3118 8.88503L39.3978 8.93498C39.5144 9.00577 39.6225 9.09001 39.7197 9.18598L39.7282 9.19329L40.7643 8.14908C40.4647 7.8483 40.1077 7.61165 39.7149 7.45335C38.9421 7.13815 38.0777 7.13815 37.3049 7.45335C36.912 7.61479 36.5547 7.85296 36.2537 8.1541C35.9526 8.45524 35.7138 8.8134 35.551 9.20792C35.231 10.0014 35.231 10.8891 35.551 11.6826C35.7124 12.0736 35.9475 12.4295 36.2434 12.7305C36.544 13.0373 36.9046 13.278 37.3025 13.4372C38.0799 13.7481 38.946 13.7481 39.7234 13.4372C40.1196 13.2776 40.4786 13.0369 40.7776 12.7305L39.7585 11.696C39.5925 11.8535 39.3965 11.9754 39.1823 12.0542C39.1206 12.0761 39.0613 12.0956 39.0056 12.1127Z" fill="#727897"/>
<path d="M42.9615 7.24377L40.7827 13.7016H42.3418L42.6032 12.8486H44.6174L44.8691 13.7016H46.4209L44.3559 7.24377H42.9615ZM43.1092 11.3865L43.6405 9.82445L44.1453 11.3865H43.1092Z" fill="#727897"/>
<path d="M39.7267 9.20427C39.6272 9.11097 39.5194 9.02696 39.4047 8.95327L39.3188 8.90331L39.2825 8.88626L39.1808 8.83995C39.0333 8.7822 38.8798 8.74133 38.7233 8.71811H38.6809C38.6531 8.71811 38.624 8.71811 38.5962 8.71811C38.5683 8.71811 38.5405 8.71811 38.5127 8.71811C38.3418 8.71942 38.172 8.74443 38.0079 8.79243C37.957 8.80717 37.9069 8.82466 37.8578 8.84483C37.6433 8.93086 37.4487 9.06071 37.2865 9.2262C37.1273 9.39092 37.0004 9.58438 36.9125 9.79644C36.8252 10.0076 36.7808 10.2342 36.7818 10.4629C36.7828 10.6847 36.8272 10.9042 36.9125 11.1087C37.0014 11.3188 37.1282 11.5105 37.2865 11.6741C37.4487 11.8396 37.6433 11.9694 37.8578 12.0554C37.905 12.0749 37.951 12.0908 37.9982 12.1054C38.0887 12.1319 38.1809 12.1519 38.2742 12.1651C38.3512 12.1767 38.4288 12.1828 38.5066 12.1834C38.6558 12.1829 38.8043 12.1628 38.9484 12.1237L39.0053 12.1091C39.0574 12.0932 39.1094 12.0762 39.1602 12.0554C39.3766 11.9701 39.5728 11.8402 39.7364 11.6741L39.7534 11.6923L38.4642 10.4361L39.7352 9.21767L39.7267 9.20427Z" fill="#FFCE5C"/>
<path d="M39.4053 8.95328L39.3188 8.90332L39.4053 8.95328Z" fill="#FFCE5C"/>
<path d="M39.1821 8.83997L39.2844 8.88627C39.2516 8.87165 39.2211 8.85459 39.187 8.8424L39.1821 8.83997Z" fill="#FFCE5C"/>
<path d="M39.1603 12.0591C39.1095 12.0798 39.0574 12.0969 39.0054 12.1127C39.0635 12.0957 39.1204 12.0762 39.1785 12.0542C39.3922 11.9752 39.5878 11.8534 39.7534 11.696L39.7365 11.6777C39.5729 11.8439 39.3767 11.9738 39.1603 12.0591Z" fill="#FFCE5C"/>
<path d="M39.7271 9.20428L39.7355 9.21151L39.7271 9.20428Z" fill="#FFCE5C"/>
<path d="M37.2551 9.22987C37.0923 9.392 36.9617 9.58387 36.8702 9.79523C36.7808 10.0042 36.7351 10.2294 36.7359 10.4569C36.7345 10.6832 36.7803 10.9073 36.8702 11.1148C36.9625 11.3243 37.0931 11.5144 37.2551 11.6753C37.4225 11.8407 37.622 11.9697 37.841 12.0542C37.8931 12.075 37.9463 12.0932 37.9984 12.1091C37.9512 12.0945 37.9052 12.0786 37.8579 12.0591C37.6434 11.9731 37.4488 11.8432 37.2866 11.6777C37.128 11.513 37.0012 11.3201 36.9126 11.1087C36.8251 10.8989 36.7806 10.6734 36.7819 10.4459C36.7809 10.2172 36.8253 9.99057 36.9126 9.77939C37.0005 9.56734 37.1274 9.37388 37.2866 9.20916C37.4488 9.04367 37.6434 8.91381 37.8579 8.82778C37.907 8.80761 37.9571 8.79012 38.008 8.77539C37.9524 8.79123 37.8955 8.81073 37.841 8.83144C37.6211 8.92335 37.4219 9.05885 37.2551 9.22987Z" fill="#FFCE5C"/>
<path d="M38.9486 12.1273C38.8046 12.1664 38.656 12.1865 38.5068 12.187C38.429 12.1864 38.3514 12.1803 38.2744 12.1687C38.3545 12.1815 38.4354 12.188 38.5165 12.1882C38.6625 12.1865 38.8077 12.166 38.9486 12.1273Z" fill="#FFCE5C"/>
</g>
<defs>
<linearGradient id="paint0_linear_51_5260" x1="0.448242" y1="10.2766" x2="63.7281" y2="10.2766" gradientUnits="userSpaceOnUse">
<stop stop-color="#FFEDC2"/>
<stop offset="0.333333" stop-color="#F7A1B5"/>
<stop offset="0.619792" stop-color="#4CFACC"/>
<stop offset="0.942708" stop-color="#69D8E7"/>
</linearGradient>
<clipPath id="clip0_51_5260">
<rect width="62.1037" height="21" fill="white" transform="translate(0.448242 0.020813)"/>
</clipPath>
</defs>
</svg>
